<svg width="1426" height="785" xmlns="http://www.w3.org/2000/svg" xmlns:xlink="http://www.w3.org/1999/xlink" xml:space="preserve" overflow="hidden"><g><path d="M4.23046 540.133C5.71674 540.683 6.74152 540.606 8.28843 541.917 10.9557 544.181 8.42663 542.59 9.83354 545.41 38.8221 545.899 68.8957 544.764 97.8183 543.704 129.114 542.559 155.298 544.278 185.762 545.92 213.863 547.435 246.584 545.953 274.892 544.9 305.05 543.776 332.757 545.602 362.88 545.205 421.582 544.43 481.06 540.53 539.31 545.49 585.395 549.415 640.42 542.338 673.032 544.457 687.958 545.428 701.708 546.033 716.853 545.556L705.637 544.59C726.212 543.153 747.03 543.456 767.604 543.215 804.044 542.787 849.936 538.152 886.133 543.999 910.793 547.983 978.329 546.304 1005.22 544.431 1025.29 543.034 1032.08 544.576 1049.21 544.766 1054.41 544.824 1058.6 543.565 1064.6 543.377L1155.86 542.183C1160.66 542.05 1165.55 541.916 1170.27 541.69L1186 542.632C1174.05 547.174 1173.19 549.512 1156.29 554.239 1144.97 557.407 1133.46 558.824 1121.25 560.005 1103.65 561.708 1066.26 566.314 1053.88 574.572 1055.47 579.589 1058.38 583.6 1059.32 589.48 1051.52 586.726 1033.18 570.508 1024.43 576.185 1020.96 578.439 1015.42 584.827 1011.34 588.409 1000.07 598.322 974.568 608.832 956.794 608.51 936.251 608.138 932.071 602.893 921.958 599.421 919.062 598.426 920.611 597.835 919.941 599.476 917.747 602.044 918.417 610.183 918.287 614.408 914.999 613.907 916.766 614.655 915.221 613.296 903.377 598.197 910.272 573.593 878.474 553.956 847.774 535 834.429 545.206 805.157 556.009L826.53 589.797C817.211 611.382 805.169 601.492 810.383 648.303 825.215 652.727 838.148 663.61 864.446 662.5 886.286 661.578 899.817 651.671 914.994 643.713L930.355 653.5C936.831 662.505 945.398 681.205 950.188 686.4 955.187 684.781 960.119 682.314 964.487 680.14 965.147 679.426 964.705 670.334 976.509 664.38 1030.32 662.343 1025.86 673.425 1057.97 639.209 1064.55 641.78 1071.87 651.018 1077.99 655.632 1088.15 663.303 1087.61 663.836 1090.99 679.283 1087.93 685.929 1067.47 702.047 1061.82 710.212L1043.44 710.587C1007.85 713.962 975.808 707.058 939.11 711.918 905.592 716.357 869.65 717 835.302 714.114 829.653 710.002 807.753 686.289 802.922 679.939L753.099 623.102C750.885 620.446 748.807 618.937 746.63 616.458L733.378 602.406C732.624 600.971 733.69 601.53 731.523 600.044 731.054 604.57 731.258 600.421 732.435 602.304 732.205 602.472 731.807 602.36 731.668 602.687 730.999 604.252 707.772 604.027 696.587 596.14L678.189 581.39C669.325 574.974 652.504 600.105 606.072 605.852 592.685 607.509 578.549 606.336 565.31 604.336 544.041 601.124 556.226 600.057 539.769 584.633 534.621 579.808 533.913 578.709 527.532 574.899 487.17 550.805 443.79 583.201 404.066 590.422 397.529 591.611 351.811 599.26 346.581 598.569 337.374 597.351 334.187 585.955 322.141 577.803 317.737 574.823 313.369 579.132 308.175 581.471 260.021 603.157 261.462 609.274 198.688 605.232 178.441 574.957 157.396 560.84 108.084 572.831 72.581 581.463 41.2643 600.511 0 595.386 0.0631465 588.605 3.93168 576.608 5.31261 568.985 7.6548 556.056 5.0243 552.396 4.23046 540.133Z" fill="#09A8E1" fill-rule="evenodd"/><path d="M506.922 294.16C546.453 293 574.119 325.534 603.129 356.773 621.796 376.873 649.399 415.459 663.91 439.893 665.477 442.529 676.297 462.538 676.892 463.041 680.14 465.787 703.426 466.265 709.291 466.384 732.977 466.864 745.353 457.389 768.423 453.574 807.04 447.186 815.678 462.384 824.681 466.577 826.544 471.471 831.043 474.188 833 480.884 806.875 495.385 781.259 500.204 746.687 500.566 719.666 500.847 658.648 495.575 643.244 496.971 635.562 497.667 623.775 506.339 600.484 508.892 553.846 514 519.61 483.744 484.96 465.341L485.092 452.037 475.833 378.557C424.721 366.808 425.94 388.183 378.921 399.534 350.184 406.473 307.93 405.566 289.885 435.437 277.02 439.483 247.417 441.676 232.245 443.365 213.921 445.406 191.024 448.877 172.868 449.377L170.408 449.548C160.369 444.029 158.384 442.056 144.362 439.43 124.451 435.699 99.7 436.192 80.0556 441.496 69.8009 444.265 60.2781 447.227 62.0728 458.677L57.0001 458.42C58.3936 449.974 58.2302 449.928 62.6388 444.962 75.1063 430.918 78.0607 432.981 86.9522 433.1 92.4181 433.173 98.1751 432.79 103.563 432.263 123.502 430.312 144.59 425.552 160.832 417.853 177.823 409.799 161.995 413.289 186.691 407.388 195.93 405.182 204.562 402.385 213.539 399.09 268.473 378.93 258.568 387.462 302.083 380.017 310.08 378.649 311.166 379.526 313.976 373.14 321.011 357.155 319.388 349.176 332.784 338.147 337.761 334.049 348.047 328.658 355.918 326.13 381.838 317.798 391.822 335.68 415.324 331.462 431.241 328.605 450.103 315.072 462.945 307.848 479.249 298.678 493.744 294.547 506.922 294.16Z" fill="#24326C" fill-rule="evenodd"/><path d="M841.977 462.489C848.228 462.233 854.774 462.899 860.826 464.056 883.285 468.353 887.298 477.467 905.589 483.221 918.723 487.352 931.099 497.594 957.161 494.794 984.299 491.877 999.749 482.735 1030.57 485.536 1057 487.939 1077.34 500.297 1102.96 496.545 1176.53 485.775 1181.21 446 1230.91 471.024 1259.25 485.294 1278.77 508.47 1326.85 502.946 1339.58 501.483 1352.59 497.69 1364 496.804 1360.98 505.092 1352.19 522.415 1347.19 527 1342.14 526.656 1334.46 523.273 1327.53 522.184 1310.04 519.437 1283.3 519.884 1266.92 511.044 1264.03 510.913 1264.77 510.24 1264.86 513.215L1264.08 513.215 1226.28 512.746C1187.04 512.016 1149.98 512.902 1110.81 513.263 1059.09 513.74 1007.58 512.859 955.79 513.617 904.113 514.373 852.533 511.66 800.732 512.776 749.415 513.882 697.955 512.04 646.849 513.029 594.625 514.038 543.882 512.866 491.829 512.427 440.659 511.993 389.263 513.495 337.908 513.196 285.648 512.891 234.106 514.52 181.816 513.09 156.401 512.396 130.377 512.322 104.828 512.336 79.8984 512.349 53.6473 514.478 28.9999 513.652 31.9775 510.12 84.0917 480.585 99.4837 477.985 119.688 474.574 144.818 479.052 165.423 481.134 184.899 483.1 204.216 506.052 252.04 502.07 276.227 500.055 284.738 487.41 307.096 486.749 325.304 486.212 352.72 491.727 371.431 493.744 434.843 500.576 462.155 469.326 485.205 465.212 519.852 483.798 554.085 514.355 600.719 509.195 624.008 506.618 635.794 497.86 643.475 497.157 658.878 495.747 719.89 501.071 746.908 500.787 781.477 500.422 807.091 495.555 833.214 480.91 831.257 474.147 826.759 471.403 824.896 466.461 829.769 463.926 835.726 462.747 841.977 462.489Z" fill="#09A8E1" fill-rule="evenodd"/><path d="M1379.11 483.079C1381.72 483 1384.45 484.394 1387.08 488.251L1418.7 538.111C1427.22 551.373 1428 549.642 1420.74 566.686 1410.63 590.4 1388.93 573.285 1356.42 583.688 1290.7 604.716 1304.26 603.617 1248.68 578.348 1241.71 575.183 1241.35 574.761 1234.03 577.919 1214.82 586.214 1197.36 597.226 1182.84 608.198 1165.53 621.278 1154.14 631.714 1139.79 646.575 1136.91 649.551 1133.8 654.895 1131.02 657.594 1127.58 660.944 1120.48 660.083 1115.75 663.274 1110.92 666.534 1105.91 675.604 1091.48 680 1088.09 664.517 1088.64 663.982 1078.47 656.294 1072.36 651.67 1065.04 642.41 1058.46 639.834 1026.34 674.128 1030.81 663.02 977 665.063 981.263 653.94 1002.74 637.362 1015.05 630.72 1029.72 622.806 1048.63 614.582 1061.68 605.882L1059.81 589.989C1058.87 584.096 1055.96 580.076 1054.36 575.047 1066.75 566.77 1104.14 562.153 1121.73 560.447 1133.94 559.263 1145.45 557.843 1156.77 554.667 1173.67 549.929 1174.53 547.585 1186.48 543.033 1189.79 540.786 1196.18 536.383 1199.83 537.029 1200.45 537.14 1213.34 542.624 1214.2 543.093 1256.09 556.215 1259.75 566.712 1289.38 576.251 1304.6 581.151 1320.08 582.025 1335.51 577.173 1339.15 576.027 1353.01 571.413 1355.61 569.788 1358.2 568.171 1360.44 564.857 1362.16 563.098 1366.08 559.092 1367.26 558.84 1367.65 553.695 1352.63 546.518 1324.99 550.698 1306.99 548.555 1300.53 547.784 1294.61 545.142 1289.13 544.553 1286.12 541.296 1280.69 539.454 1278.89 536.479 1275.24 532.917 1273.93 531.417 1271.21 527.743L1269.99 525.653 1268.05 520.833 1266.04 516.132 1265.34 513.114C1265.26 510.158 1264.52 510.827 1267.41 510.957 1283.79 519.741 1310.54 519.297 1328.03 522.026 1334.97 523.108 1342.65 526.47 1347.7 526.812 1352.71 522.256 1361.5 505.043 1364.52 496.808 1364.52 496.805 1371.29 483.315 1379.11 483.079Z" fill="#F08120" fill-rule="evenodd"/><path d="M743.426 0.240067C758.435 0.959907 776.436 4.2377 788.365 6.17731 881 21.2389 877.43 1.59589 872.941 46.7061 870.42 72.0517 852.533 54.727 825.447 56.5694 817.504 70.8766 816.219 106.182 814.025 125.848 807.538 184 815.219 181.248 788.307 179.226 770.812 177.91 760.737 179.969 759.992 167.411 758.726 146.061 772.244 73.2841 768.517 57.4001 761.505 58.2002 755.901 67.4181 752.013 71.9391 740.346 85.5002 744.486 78.5951 729.925 99.2516 716.196 118.728 714.023 109.08 710.077 118.978 707.5 125.443 706.682 127.303 703.95 132.494 700.566 138.925 704.074 142.915 699.297 147.468 691.001 149.056 686.644 141.958 686.644 134.481 689.402 132.09 689.238 133.425 690.741 130.092 685.265 123.85 683.672 132.161 677.653 119.77 676.346 117.078 676.077 116.539 677.318 114.311 683.251 117.775 676.236 118.755 686.028 119.699 691.722 120.248 693.13 119.743 696.191 116.927 694.786 115.435 694.728 114.79 691.26 114.046 688.908 113.542 687.124 113.853 684.955 113.587 676.992 112.615 682.524 112.073 678.417 107.669 671.911 107.429 667.235 108.662 663.069 103.729 660.332 100.49 657.683 96.6343 655.063 93.0761 636.199 67.4689 638.507 67.6398 617.386 90.0103 602.993 105.257 583.793 136.392 576.433 155.523 573.17 164.002 573.509 165.448 563.223 166.806 555.729 167.794 550.059 168.82 542.053 168.565 541 140.333 576.373 84.7396 593.738 62.0085 597.673 56.857 601.981 52.9385 605.932 47.8453 611.927 40.1138 638.315 10.9707 646.827 9.71209 660.673 7.66522 699.319 66.063 707.396 80.322 710.342 85.5243 712.965 92.4023 719.076 94.1102 724.959 90.2151 736.608 72.3209 747.801 61.1325 750.907 58.0271 755.186 54.8447 755.411 48.9117 745.597 43.3042 724.921 49.1421 723.428 36.8461 722.205 26.777 726.336 7.74045 729.75 0.516846 733.752 0.0442702 738.423 0 743.426 0.240067Z" fill="#24326C" fill-rule="evenodd"/><path d="M249.192 76.0977C251.255 76 253.287 76.362 255.223 77.4344 259.732 79.9518 264.43 99.8824 266.162 106.224 268.782 115.822 273.347 125.128 276.21 134.724 280.238 148.221 288.277 185.787 297.049 191.841 302.293 193.858 351.07 171.574 358.059 170.211 367.305 168.407 369.077 174.953 371.382 182.529 379.808 210.213 381 207.949 360.612 214.763 347.501 219.144 335.431 225.727 321.712 229.877 312.997 232.515 309.112 232.333 300.905 236.474 296.954 238.468 284.929 243.183 281.246 244.189 259.647 250.094 261.666 256.625 253.777 229.617 248.735 212.364 247.884 204.213 239.179 190.397 235.785 185.011 234.323 176.745 231.809 170.272 228.696 162.258 229.074 155.787 223.305 152.485 220.584 153.425 216.248 158.362 214.303 161 211.641 164.612 209.913 167.502 208.04 171.208L187.647 216.851C180.014 240.1 182.003 227.486 172.938 234.805 174.567 239.241 176.128 236.661 176.03 241.365 175.939 245.722 174.206 243.879 173.531 247.364 172.521 252.581 179.855 253.18 171.21 258.539L171.821 269.022C169.561 270.042 168.083 271.02 164.971 271.445 158.963 260.203 161.697 267.349 157.377 262.156 149.172 252.291 154.04 259.396 148.534 255.546 143.388 251.947 143.49 245.029 130.543 241.771 112.6 237.255 112.234 219.409 90.0188 218.253 86.0614 226.591 79.6785 232.115 76.1971 241.821 60.6378 285.193 61.6312 270.817 51.7146 327.322 41.8012 329.979 37.0104 335.836 26.9359 336 22 322.276 27.721 287.875 32.7505 272.114 35.3219 264.055 35.1894 259.729 36.9338 252.025 39.0597 242.637 61.9794 187.527 65.9013 180.93 67.6057 178.063 69.6189 176.076 71.3962 173.217 73.0642 170.532 74.2941 168.054 75.9126 165.65 78.7881 161.379 83.7576 154.004 88.4274 152.974 94.0418 151.737 116.394 166.645 120.445 169.35 132.91 177.678 172.247 212.351 175.03 213.512L176.884 215.482 178.462 213.126C178.858 209.023 189.315 187.796 191.375 182.042 193.865 175.095 209.568 148 214.918 140.693 228.811 121.711 209.211 119.551 210.202 91.6207 222.052 86.523 215.885 88.2066 231.516 82.6155 236.537 80.8201 243.004 76.3901 249.192 76.0977Z" fill="#24326C" fill-rule="evenodd"/><path d="M463 16.0002 463 57.4647 462.912 57.3716C461.071 56.4037 458.577 55.8396 455.781 55.5969 447.392 54.8689 436.293 57.035 432.003 59.8793 425.529 64.172 430.969 83.9661 433.783 88.4485 437.748 89.2939 449.937 86.6584 457.49 84.2167L463 81.9846 463 118.971 455.769 119.343C450.825 120.203 446.359 121.567 443.543 123.15 434.784 128.074 441.837 144.694 444.394 153.857 449.231 154.222 453.678 154.114 457.722 153.628L463 152.418 463 189.992 431.263 196.632C421.982 197.809 411.652 204 402.22 200.483 396.803 196.733 397.638 188.167 396.422 181.726 395.159 175.041 393.853 168.439 392.471 161.561 388.954 144.063 385.55 113.579 382.538 98.7545 379.223 82.4335 373 50.5516 373.784 35.9802 381.691 34.1641 389.733 31.3754 397.932 29.3574 406.566 27.2328 415.853 26.4907 423.984 24.5251 436.633 21.4692 449.495 17.7405 462.937 16.0045L463 16.0002Z" fill="#21336A" fill-rule="evenodd"/><path d="M476.476 15.1185C491.173 15.0001 490.233 17.2782 500.101 22.3701 505.74 25.2806 503.788 25.6509 507.724 30.0926 510.587 33.3219 512.002 34.8787 513.784 39.423 524.281 66.203 507.133 81.8748 504.777 86.7154 506.907 92.1708 509.01 92.6317 514.901 94.4929 524.168 97.4207 534.796 116.449 535.882 126.299 541 172.7 508.331 175.989 489.443 184.426L463 190 463 152.443 468.588 151.153C487.787 144.271 492.141 127.213 478.904 120.619 476.738 119.54 473.92 118.897 470.795 118.606L463 119.011 463 82.0409 463.022 82.0322C468.735 78.4189 470.761 69.0113 467.709 62.5687L463 57.5321 463 16.0863 476.476 15.1185Z" fill="#21336A" fill-rule="evenodd"/><path d="M925.62 30.4342C927.27 30.6392 929.213 31.0614 931.516 31.6984 940.933 34.3043 951.14 37.5348 961.218 40.6701L975 44.6723 975 83.0214 967.89 80.9895C965.235 80.6534 962.913 80.7516 961.309 81.5088 955.807 84.1067 951.792 105.923 956.011 109.778 958.462 112.02 964.598 113.812 971.033 114.643L975 114.836 975 220 973.104 217.482C971.165 212.581 970.53 205.228 967.915 193.857 966.215 186.464 964.094 180.446 962.547 173.91 960.423 164.936 962.602 161.288 957.223 153.827 940.273 130.324 938.837 167.504 937.885 171.763 936.269 178.985 933.8 184.816 932.708 192.216 929.969 210.777 931.331 214.295 904.233 205.843 898.204 203.962 899.183 203.472 895.303 201.593 883.525 195.894 873 207.675 886.105 159.576 887.901 152.984 889.231 145.833 890.837 139.001 892.492 131.967 894.92 127.438 896.603 120.483L911.211 58.919C916.86 38.2109 914.067 28.9999 925.62 30.4342Z" fill="#21336A" fill-rule="evenodd"/><path d="M975 45 990.175 49.3779C1017.33 56.1219 1044.11 64.3122 1047.32 93.212 1049 108.337 1044.58 124.447 1037.63 133.776 1026.84 148.252 1017.03 147.747 1006.89 152.135 1007.17 162.472 1012.27 158.762 1017.74 181.136 1018.65 184.849 1019.9 186.503 1020.79 190.275 1021.75 194.32 1028.6 224.865 1028.03 229.382 1027.73 231.726 1027.71 230.817 1027.24 232.149L1026.31 233.665C1017.71 239 995.213 227.655 986.138 225.858 982.215 225.082 979.441 224.084 977.405 222.672L975 219.497 975 114.831 980.497 115.097C983.445 114.968 986.045 114.536 987.872 113.737 997.367 109.582 998.466 96.0755 990.351 89.7737 988.59 88.4063 984.966 86.4998 980.785 84.8102L975 83.1674 975 45Z" fill="#21336A" fill-rule="evenodd"/><path d="M1135.17 112.061 1140 112.534 1140 158.368 1133.95 160.613C1127.04 164.387 1120.97 171.042 1117.95 175.821 1108.65 190.548 1103.06 206.239 1103.82 223.829 1104.32 235.524 1117.79 253.088 1139.72 249.449L1140 249.355 1140 295.931 1137.37 296C1118.51 293.874 1102.11 284.699 1089.14 276.375 1083.45 272.729 1070.33 260.307 1067.09 254.431 1065.67 251.863 1065.13 249.355 1063.7 246.813 1062.14 244.055 1061.17 243.29 1059.84 239.698 1048 207.707 1057.61 177.274 1072.61 151.26 1084.04 131.449 1100.27 118.013 1123.02 113.19 1126.94 112.357 1131.02 112 1135.17 112.061Z" fill="#24326C" fill-rule="evenodd"/><path d="M1140 113 1146.21 113.607C1172.22 118.179 1199.18 136.5 1212.39 155.286 1234 186.005 1223.81 228.638 1206.78 257.395L1192.6 276.2C1188.27 281.67 1170.79 293.224 1157.01 295.554L1140 296 1140 249.525 1146.49 247.359C1161.42 239.734 1170.47 216.763 1174.75 202.181 1180.81 181.563 1167.7 160.307 1149.25 158.077 1146.62 157.758 1143.87 157.828 1141.06 158.343L1140 158.735 1140 113Z" fill="#24326C" fill-rule="evenodd"/><path d="M1304.67 220.195C1318.72 220.78 1330.34 228.656 1340.32 235.58 1351.24 243.148 1359.36 250.714 1367.35 261.193 1370.99 265.978 1372.39 266.064 1374.61 271.445 1376.9 276.999 1378.4 277.22 1379.64 283.905 1383 302.065 1380.02 309.558 1373.93 325.969 1362.51 325.601 1358.58 318.662 1351.25 313.454 1344.74 308.836 1335.44 304.717 1334.92 294.324 1334.61 288.315 1337.16 283.25 1334.86 277.272 1329.31 262.828 1308.24 255.993 1307.21 271.303 1306.61 280.392 1314.54 288.911 1318.61 294.579 1320.82 297.668 1324.4 301.588 1325.9 304.792 1337.25 329.046 1350.08 339.349 1341.25 370.298 1339.32 377.072 1331.87 387.028 1326.76 390.893 1319.39 396.467 1315.36 401.135 1302.54 401.828 1280.81 403 1263.65 392.822 1252.35 382.777 1239.9 371.725 1227.9 363.194 1220.84 344.16 1216.75 333.106 1214 286.794 1232.84 293.55 1237.25 295.131 1249.11 305.647 1253.09 308.575 1264.81 317.217 1259.64 317.576 1259.01 333.778 1258.07 358.301 1284.92 368.93 1294.92 357.939 1307.38 344.234 1279.17 309.065 1270.94 300.597 1264.06 293.529 1258.68 269.381 1258.99 261.39 1259.63 244.362 1276.07 226.865 1289.78 222.346 1295.03 220.615 1299.99 220 1304.67 220.195Z" fill="#21336A" fill-rule="evenodd"/><path d="M9.50913 523.172C9.4965 526.122 8.72595 524.332 10.3071 526.36L6.18547 528.791C64.4003 531.942 123.474 523.913 182.573 528.998 210.48 531.399 242.885 529.553 271.103 528.984 285.667 528.691 301.589 527.122 315.967 527.902 390.947 531.97 464.931 522 538.941 528.901 586.917 533.374 637.629 526.138 672.389 528.151 687.659 529.034 702.184 529.807 717.559 529.314L711.507 528.234C749.034 527.163 852.971 523.428 885.425 527.606 890.649 528.278 895.897 529.63 901.159 530.074 907.778 530.634 912.77 529.19 919.904 529.491 943.546 530.492 967.247 529.808 990.885 529.056 1002.52 528.687 1013.87 527.429 1025.51 527.657 1038.53 527.912 1048.04 528.346 1060.68 527.557 1084.11 526.094 1108.65 526.97 1132.22 526.651 1155.28 526.338 1178.57 524.825 1201.55 525.441 1224 526.045 1249.33 527.948 1271.32 527.532 1274.04 531.255 1275.35 532.775 1279 536.385 1275.88 538.575 1273.01 537.949 1268.63 537.801L1238.93 536.792C1190.37 534.529 1168.52 536.235 1120.12 537.629 1066.35 539.177 1012.49 537.057 958.396 538.335 905.305 539.589 853.058 533.494 799.996 536.398 773.251 537.862 746.546 538.511 719.691 538.393 692.757 538.275 667.613 536.421 640.539 537.495 613.931 538.552 586.842 539.66 560.177 538.666 534.18 537.697 508.083 535.468 482.078 535.53 455.72 535.593 429.259 537.41 402.873 537.786 375.67 538.174 348.647 537.636 321.467 537.431 293.88 537.223 268.44 538.57 241.163 539.278 213.5 539.995 188.906 536.872 162.384 536.232 121.889 535.258 42.836 535.102 4.48087 540L4.00013 524.952 9.50913 523.172Z" fill="#09A6DF" fill-rule="evenodd"/><path d="M849.276 543.689C857.649 544.103 866.706 547.114 878.201 554.23 909.949 573.887 903.065 598.518 914.89 613.633L930 653.879 914.663 644.082C899.51 652.049 886 661.966 864.195 662.889 837.939 664 825.027 653.105 810.218 648.677 805.012 601.817 817.035 611.717 826.339 590.109L805 556.285C823.266 549.526 835.321 543 849.276 543.689Z" fill="#24326C" fill-rule="evenodd"/><path d="M481.686 535.107C507.695 535.043 533.798 537.35 559.799 538.354 586.47 539.382 613.564 538.235 640.176 537.142 667.255 536.03 692.404 537.948 719.343 538.071 746.203 538.192 772.912 537.521 799.663 536.006 852.735 533 904.992 539.309 958.092 538.011 1012.2 536.689 1066.07 538.883 1119.84 537.28 1168.25 535.837 1190.11 534.071 1238.68 536.414L1268.39 537.458C1272.76 537.611 1275.64 538.259 1278.76 535.993 1280.56 539.113 1285.99 541.045 1289 544.463 1275.74 544.955 1223.49 540.833 1216.77 542.015L1214.04 542.932C1213.18 542.439 1200.28 536.686 1199.66 536.57 1196.01 535.892 1189.61 540.511 1186.31 542.869L1170.57 541.878C1165.85 542.116 1160.95 542.256 1156.15 542.397L1064.85 543.652C1058.86 543.85 1054.66 545.173 1049.46 545.112 1032.33 544.912 1025.53 543.291 1005.46 544.76 978.552 546.729 910.989 548.495 886.319 544.306 850.107 538.158 804.197 543.031 767.743 543.481 747.161 543.735 726.334 543.416 705.751 544.927L716.971 545.943C701.82 546.444 688.065 545.808 673.133 544.787 640.508 542.559 585.461 550 539.358 545.873 481.084 540.658 421.582 544.759 362.856 545.574 332.721 545.991 305.004 544.071 274.833 545.252 246.514 546.36 213.78 547.918 185.667 546.326 155.192 544.599 128.997 542.791 97.6889 543.996 68.7548 545.11 38.6692 546.303 9.66899 545.789 8.26152 542.824 10.7916 544.497 8.12362 542.117 6.57574 540.738 5.55055 540.82 4.06402 540.241L4.00013 539.734C42.3624 534.665 121.43 534.826 161.933 535.834 188.46 536.497 213.057 539.729 240.726 538.987 268.008 538.254 293.453 536.86 321.045 537.075 348.23 537.288 375.258 537.844 402.466 537.442 428.857 537.053 455.323 535.172 481.686 535.107Z" fill="#21336A" fill-rule="evenodd"/><path d="M445.69 375.525C453.49 375 462.987 375.861 475.751 378.778L485 451.739C469.203 443.178 469.746 434.557 462.928 423.437 434.091 429.172 397.261 476 334.959 441.091 308.279 426.144 329.313 432.046 290 435.256 308.026 405.596 350.236 406.497 378.942 399.607 414.169 391.153 422.29 377.101 445.69 375.525Z" fill="#09A8E1" fill-rule="evenodd"/><path d="M27.9543 513C28.718 516.36 26.7455 513.474 28.6519 516.212 79.4285 517.51 130.811 513.507 181.565 516.158 222.353 518.289 292.547 516.009 337.781 516.269 389.251 516.566 440.455 515.051 491.796 515.284 543.745 515.519 594.773 517.328 646.911 515.976 696.521 514.69 749.803 515.855 800.925 514.738 852.98 513.601 904.015 517.145 956.04 516.674 1045.46 515.865 1137.35 513.709 1226.66 514.606 1233.65 514.677 1239.85 515.638 1246.47 515.827 1253 516.015 1259.38 515.143 1265.99 515.779L1268 520.771C1266.81 521.717 1267.76 521.641 1265.22 522.207 1264.6 522.345 1262.6 522.287 1261.89 522.269 1259.65 522.211 1257.93 521.942 1255.54 521.991 1243.57 522.756 1228.06 520.923 1215.66 520.519 1177.46 519.276 1136.5 521.977 1097.95 522.635 1071.48 523.088 1045.19 521.815 1018.75 521.765 960.003 521.655 925.078 524.929 862.523 520.953 836.716 519.312 811.299 521.002 785.473 521.881 733.448 523.655 682.083 520.469 630.408 522.622 577.563 524.822 527.399 519.794 475.288 520.487 422.833 521.187 371.796 522.482 319.079 522.01 292.474 521.771 267.29 523.453 240.972 523.89 214.527 524.328 189.689 521.229 163.971 520.906 138.593 520.587 111.951 519.739 86.6283 520.738 73.2556 521.265 18.3847 525 9.99997 523.754 14.0214 518.625 21.6341 515.514 27.9543 513Z" fill="#09A6DF" fill-rule="evenodd"/><path d="M1027.97 575.662C1037.44 575 1052.31 587.713 1059.13 590.121L1061 605.971C1047.96 614.647 1029.08 622.848 1014.43 630.741 1002.14 637.365 980.684 653.898 976.427 664.99 964.639 670.941 965.08 680.029 964.421 680.742 960.059 682.915 955.134 685.381 950.142 687 945.357 681.807 936.802 663.115 930.335 654.114L915.222 613.928C916.764 615.286 915 614.539 918.284 615.039 918.413 610.816 917.744 602.681 919.935 600.113 920.605 598.474 919.057 599.064 921.949 600.059 932.049 603.529 936.223 608.771 956.738 609.143 974.489 609.465 999.956 598.96 1011.21 589.051 1015.28 585.471 1020.82 579.085 1024.29 576.833 1025.38 576.124 1026.62 575.756 1027.97 575.662Z" fill="#F8F8F8" fill-rule="evenodd"/><path d="M1149.34 158.317C1167.85 160.536 1181 181.683 1174.92 202.194 1170.01 218.774 1158.86 246.253 1139.78 249.387 1117.78 253 1104.27 235.564 1103.76 223.954 1103 206.493 1108.61 190.917 1117.94 176.298 1121.98 169.972 1131.46 160.337 1141.12 158.582 1143.94 158.069 1146.7 158 1149.34 158.317Z" fill="#F8F8F8" fill-rule="evenodd"/><path d="M104.798 511.679C130.358 511.665 156.393 511.74 181.818 512.437 234.129 513.873 285.692 512.237 337.974 512.543 389.35 512.843 440.767 511.335 491.959 511.77 544.033 512.212 594.796 513.388 647.043 512.375 698.169 511.383 749.65 513.232 800.989 512.122 852.811 511 904.412 513.725 956.11 512.965 1007.92 512.204 1059.45 513.089 1111.19 512.61 1150.38 512.248 1187.46 511.358 1226.71 512.091L1264.53 512.562 1265.31 512.562 1266 515.612C1259.39 515.007 1253.01 515.837 1246.48 515.657 1239.86 515.478 1233.66 514.563 1226.68 514.496 1137.38 513.641 1045.52 515.693 956.11 516.464 904.095 516.912 853.071 513.539 801.026 514.621 749.914 515.684 696.643 514.576 647.043 515.8 594.915 517.086 543.897 515.365 491.959 515.141 440.628 514.919 389.434 516.361 337.974 516.078 292.749 515.831 222.568 518 181.789 515.973 131.045 513.449 79.6727 517.259 28.9062 516.024 27.0002 513.418 28.9722 516.165 28.2087 512.967L28.9387 513.001C53.5963 513.831 79.8582 511.693 104.798 511.679Z" fill="#193E73" fill-rule="evenodd"/><path d="M1221.2 542.009C1235.83 542 1277.15 544.956 1288.71 544.545 1294.18 545.134 1300.07 547.775 1306.52 548.545 1324.46 550.688 1352.02 546.51 1367 553.683 1366.61 558.826 1365.44 559.078 1361.52 563.082 1359.81 564.839 1357.57 568.153 1354.99 569.769 1352.4 571.393 1338.58 576.004 1334.95 577.15 1319.57 582 1304.14 581.126 1288.96 576.228 1259.42 566.694 1255.77 556.202 1214 543.087L1216.72 542.213C1217.56 542.072 1219.11 542.01 1221.2 542.009Z" fill="#09A8E1" fill-rule="evenodd"/><path d="M965.605 710.273C991.771 710 1016.47 713.334 1043.17 710.738L1059 710.412C1057.05 714.37 1049.57 722.841 1045.05 725.42 1026.24 724.695 965.159 729.521 941.424 730.672 925.165 731.461 905.765 733 889.536 732.033 873.869 731.101 861.049 723.052 844.982 723.675 840.387 721.908 838.248 718.11 835 714.356 869.352 717.317 905.3 716.657 938.823 712.103 947.998 710.856 956.883 710.365 965.605 710.273Z" fill="#F8E801" fill-rule="evenodd"/><path d="M111.978 437.317C123.142 437 134.34 437.803 144.323 439.654 158.385 442.259 160.376 444.216 170.443 449.691L171.86 451.375C173 463.475 162.642 465.579 152.084 468.495 143.124 470.972 130.044 472.434 119.838 472.629 100.588 473 71.0897 469.509 61.7999 458.747 60.0002 447.388 69.55 444.45 79.8338 441.703 89.6839 439.072 100.814 437.635 111.978 437.317Z" fill="#09A8E1" fill-rule="evenodd"/><path d="M845 723.615C861.062 723 873.878 730.956 889.54 731.877 905.763 732.833 925.157 731.311 941.41 730.532 965.137 729.394 1026.2 724.624 1045 725.34 1041.76 729.969 1031.77 740.133 1028.28 742.468 1014.65 741.699 999.863 742.5 986.429 741.019 972.568 739.491 960.678 737.737 946.544 738.348 931.249 739.009 924.817 742.354 911.168 745.482 895.815 749 886.109 746.669 870.964 745.448 864.375 744.003 861.65 739.799 857.06 736.062 854.46 733.944 853.419 732.359 850.81 730.185 847.517 727.437 846.196 727.956 845 723.615Z" fill="#09A8E1" fill-rule="evenodd"/><path d="M946.907 738.585C961.102 738 973.043 739.678 986.964 741.139 1000.46 742.555 1015.31 741.79 1029 742.525 1027.25 745.643 1019.7 754.934 1013.01 754.274 993.892 752.553 970.583 749.672 951.492 752.984 931.38 756.474 914.504 757.536 893.609 758.659 886.362 759 882.299 754.028 875.358 749.58 871.509 747.114 871.273 747.348 871 745.375 886.211 746.543 895.959 748.772 911.378 745.407 925.086 742.416 931.546 739.217 946.907 738.585Z" fill="#F8E801" fill-rule="evenodd"/><path d="M470.47 117.894C473.567 118.192 476.359 118.85 478.507 119.955 496 128.956 482.496 157 444.449 154.007 441.935 144.631 435 127.623 443.613 122.585 449.15 119.345 461.178 117 470.47 117.894Z" fill="#F8F8F8" fill-rule="evenodd"/><path d="M966.415 751.53C981.82 751 998.407 753.031 1012.65 754.38L1016 755.639 1004.77 766.188C991.432 761.139 970.862 761.936 955.342 763.819 938.292 765.886 920.819 767 903.455 766.775 898.032 765.741 896.303 762.997 890.803 760.955 893.318 758.415 888 760.007 894.027 758.963 914.786 757.79 931.553 756.679 951.535 753.033 956.276 752.167 961.28 751.706 966.415 751.53Z" fill="#09A8E1" fill-rule="evenodd"/><path d="M967.225 81.3335C975.251 82.3331 986.292 87.2072 989.836 89.9326 998 96.2129 996.895 109.673 987.342 113.814 979.99 117 960.194 114.335 955.252 109.888 951 106.065 955.046 84.4253 960.593 81.8485 962.209 81.0975 964.549 81.0001 967.225 81.3335Z" fill="#F8F8F8" fill-rule="evenodd"/><path d="M455.092 55.7132C457.874 55.951 460.355 56.5035 462.186 57.4517 471 62.015 469.934 76.8333 462.296 81.5548 458.271 84.0419 438.47 89 433.21 87.8955 430.411 83.5045 425 64.114 431.439 59.9083 435.707 57.122 446.748 55 455.092 55.7132Z" fill="#F8F8F8" fill-rule="evenodd"/><path d="M980.94 762.192C989.749 762.384 998.284 763.423 1005 765.889L997.85 772.864C992.802 773.912 985.928 772.64 980.258 773.887 973.914 775.281 970.521 776.974 963.469 777.362 951.821 778 937.474 775.562 924.509 775.847 915.441 772.811 910.781 770.745 903 766.461 920.48 766.681 938.071 765.593 955.236 763.574 963.047 762.654 972.131 762 980.94 762.192Z" fill="#F8E801" fill-rule="evenodd"/><path d="M998 773.216C996.966 776.712 990.969 782.553 986.706 783.623 981.438 784.945 969.469 785 963.693 784.612 951.826 783.814 933.363 781.792 925 776.104 937.904 775.829 952.185 778.188 963.779 777.57 970.798 777.194 974.175 775.556 980.49 774.207 986.134 773 992.976 774.231 998 773.216Z" fill="#09AAE3" fill-rule="evenodd"/><path d="M125.275 519.985C138.271 520.104 151.274 520.377 163.962 520.526 189.676 520.829 214.51 523.731 240.952 523.32 267.267 522.911 292.447 521.336 319.048 521.559 371.758 522.002 422.788 520.789 475.236 520.134 527.34 519.485 577.496 524.193 630.334 522.133 682.002 520.117 733.36 523.1 785.378 521.439 811.2 520.616 836.614 519.034 862.417 520.57 924.963 524.293 959.884 521.227 1018.62 521.331 1045.06 521.377 1071.35 522.57 1097.82 522.145 1136.35 521.529 1177.31 519 1215.51 520.164 1227.9 520.542 1243.41 522.258 1255.38 521.542 1257.77 521.496 1259.48 521.748 1261.73 521.803 1262.44 521.819 1264.44 521.874 1265.06 521.744 1267.59 521.214 1266.65 521.285 1267.84 520.399L1269.78 525.191 1271 527.27C1249.01 527.677 1223.69 525.81 1201.24 525.218 1178.26 524.613 1154.97 526.098 1131.91 526.405 1108.35 526.718 1083.81 525.859 1060.38 527.294 1047.75 528.068 1038.23 527.642 1025.22 527.392 1013.57 527.169 1002.23 528.402 990.596 528.765 966.96 529.502 943.262 530.173 919.622 529.191 912.489 528.895 907.497 530.313 900.88 529.763 895.618 529.327 890.371 528.002 885.147 527.342 852.696 523.244 748.771 526.907 711.247 527.958L717.298 529.017C701.925 529.501 687.402 528.743 672.133 527.876 637.377 525.903 586.67 533 538.699 528.612 464.697 521.843 390.72 531.623 315.749 527.633 301.372 526.867 285.452 528.406 270.889 528.693 242.674 529.252 210.273 531.063 182.369 528.708 123.276 523.72 64.2085 531.596 5.99984 528.505L10.121 526.12C8.53969 524.131 9.31016 525.886 9.32315 522.993L10.0121 523.193C18.3952 524.359 73.2586 520.862 86.6294 520.368 99.289 519.901 112.278 519.866 125.275 519.985Z" fill="#24326C" fill-rule="evenodd"/><path d="M178 213 176.621 216 175 213.493C177.693 214.114 176.108 214.382 178 213Z" fill="#8F8BAD" fill-rule="evenodd"/><path d="M731.534 600C734 601.641 732.787 601.023 733.645 602.61L732.572 602.496C731.232 600.416 731 605 731.534 600Z" fill="#A6DAF1" fill-rule="evenodd"/><path d="M173 449 171.723 451 170 449.183 173 449Z" fill="#BCC2D5" fill-rule="evenodd"/></g></svg>