<svg width="693" height="1371" viewBox="0 0 693 1371" fill="none" xmlns="http://www.w3.org/2000/svg">
<g opacity="0.2">
<line x1="692" y1="1371" x2="692" stroke="white" stroke-width="2"/>
<line x1="593" y1="1371" x2="593" stroke="white" stroke-width="2"/>
<line x1="494" y1="1371" x2="494" stroke="white" stroke-width="2"/>
<line x1="395" y1="1371" x2="395" stroke="white" stroke-width="2"/>
<line x1="296" y1="1371" x2="296" stroke="white" stroke-width="2"/>
<line x1="197" y1="1371" x2="197" stroke="white" stroke-width="2"/>
<line x1="98" y1="1371" x2="98" stroke="white" stroke-width="2"/>
<line y1="97" x2="693" y2="97" stroke="white" stroke-width="2"/>
<line y1="195" x2="693" y2="195" stroke="white" stroke-width="2"/>
<line y1="293" x2="693" y2="293" stroke="white" stroke-width="2"/>
<line y1="390" x2="693" y2="390" stroke="white" stroke-width="2"/>
<line y1="488" x2="693" y2="488" stroke="white" stroke-width="2"/>
<line y1="586" x2="693" y2="586" stroke="white" stroke-width="2"/>
<line y1="684" x2="693" y2="684" stroke="white" stroke-width="2"/>
<line y1="782" x2="693" y2="782" stroke="white" stroke-width="2"/>
<line y1="880" x2="693" y2="880" stroke="white" stroke-width="2"/>
<line y1="978" x2="693" y2="978" stroke="white" stroke-width="2"/>
<line y1="1076" x2="693" y2="1076" stroke="white" stroke-width="2"/>
<line y1="1174" x2="693" y2="1174" stroke="white" stroke-width="2"/>
<line y1="1272" x2="693" y2="1272" stroke="white" stroke-width="2"/>
<line y1="1370" x2="693" y2="1370" stroke="white" stroke-width="2"/>
</g>
</svg>
