<svg width="563" height="131" viewBox="0 0 563 131" fill="none" xmlns="http://www.w3.org/2000/svg">
<path d="M41.1042 115.25L35.7003 100.497L20.25 106.836L21.6756 123.221L4.00482 130.47L0.453979 54.1032L30.9846 41.578L58.6824 108.039L41.1042 115.25ZM16.6254 66.3844L18.9572 92.8821L31.0769 87.91L22.454 63.9932L16.6254 66.3844Z" fill="url(#paint0_linear_158_335)"/>
<path d="M116.836 90.3131L73.029 102.976L65.2359 30.2807L82.528 25.2823L88.679 82.2133L115.194 74.5491L116.836 90.3131Z" fill="url(#paint1_linear_158_335)"/>
<path d="M158.295 8.68441C165.782 7.37893 171.388 8.09326 175.114 10.8274C177.913 12.9108 179.645 15.8571 180.309 19.6663C180.538 20.9798 180.647 22.3819 180.636 23.8726L180.574 28.7558C180.505 32.6253 179.602 35.7941 177.867 38.2622C176.197 40.7188 174.575 42.0845 172.998 42.3594L173.037 43.1647C174.876 42.844 176.925 43.5356 179.185 45.2395C181.445 46.9433 182.815 49.1744 183.296 51.9328C183.491 53.0493 183.565 54.2544 183.52 55.548L183.462 58.705C183.396 64.5364 181.64 69.4104 178.195 73.327C174.816 77.2322 169.579 79.8032 162.486 81.04L129.583 86.7772L129.726 13.6658L158.295 8.68441ZM156.747 52.1972L147.388 53.829L147.394 67.8362L156.753 66.2043C156.884 66.1814 157.016 66.1585 157.147 66.1356C160.168 65.6088 162.445 64.5013 163.978 62.8129C165.499 61.0588 166.082 59.1638 165.727 57.1279C164.994 52.9246 162.001 51.2811 156.747 52.1972ZM154.769 25.1347L147.38 26.423L147.378 41.5481L154.668 40.277C160.973 39.1777 163.645 35.8696 162.683 30.3529C162.351 28.4483 161.49 27.008 160.102 26.0319C158.779 25.0444 157.002 24.7454 154.769 25.1347Z" fill="url(#paint2_linear_158_335)"/>
<path d="M234.972 73.1997L234.713 57.4904L218.038 58.4029L214.003 74.3472L194.932 75.3908L216.659 2.0941L249.61 0.291016L253.943 72.1616L234.972 73.1997ZM227.9 19.0052L221.4 44.7989L234.48 44.0831L234.191 18.661L227.9 19.0052Z" fill="url(#paint3_linear_158_335)"/>
<path d="M344.05 20.1744L319.505 18.5362L305.871 74.1517L287.811 72.9464L301.445 17.3308L276.8 15.686L280.632 0.307063L347.883 4.79548L344.05 20.1744Z" fill="url(#paint4_linear_158_335)"/>
<path d="M398.209 14.4334C405.674 15.8597 410.665 18.5101 413.183 22.3848C415.065 25.3235 415.643 28.6919 414.917 32.4898C414.667 33.7995 414.273 35.1496 413.736 36.5401L410.897 43.9388C409.298 48.045 407.266 51.2201 404.801 53.464C402.402 55.7205 399.917 57.1801 397.347 57.8429L400.805 88.2319L380.964 84.441L377.762 56.4425L371.672 55.2789L362.597 80.9315L343.738 77.3283L369.724 8.99097L398.209 14.4334ZM389.093 28.5739L381.727 27.1664L375.907 43.7693L382.783 45.083C386.253 45.7461 388.898 45.403 390.717 44.0537C392.548 42.6389 393.727 40.5564 394.252 37.8061C395.266 32.5021 393.546 29.4247 389.093 28.5739Z" fill="url(#paint5_linear_158_335)"/>
<path d="M472.326 33.6319C487.635 38.509 493.296 47.2044 489.309 59.718C488.641 61.8142 487.701 63.9984 486.487 66.2705L477.081 84.2643C472.743 92.608 467.356 98.0983 460.918 100.735C454.481 103.372 446.657 103.223 437.446 100.289C428.236 97.3547 422.498 93.1827 420.233 87.7733C418.687 84.0621 418.733 79.6339 420.372 74.4887C421.101 72.202 422.154 69.7739 423.533 67.2044L432.939 49.2105C441.348 33.1381 454.477 27.9452 472.326 33.6319ZM444.724 86.34C447.9 87.3519 450.704 87.3356 453.136 86.2912C455.568 85.2468 457.873 82.6228 460.052 78.4191L469.12 61.1572C469.715 59.9475 470.174 58.8345 470.498 57.8182C472.137 52.673 470.353 49.2707 465.144 47.6112C458.561 45.6538 453.47 48.1252 449.873 55.0254L440.805 72.2873C440.045 73.7943 439.392 75.4054 438.845 77.1205C437.429 81.5669 439.388 84.6401 444.724 86.34Z" fill="url(#paint6_linear_158_335)"/>
<path d="M507.309 102.689C505.403 106.875 507.454 110.336 513.46 113.071C519.528 115.833 523.418 115.333 525.131 111.571C526.042 109.569 525.756 107.461 524.274 105.248C522.791 103.035 520.756 100.827 518.17 98.6236C515.644 96.4482 513.143 94.1377 510.668 91.692C508.28 89.2133 506.593 86.3212 505.608 83.0157C504.65 79.6495 504.986 76.1765 506.615 72.5967C513.549 57.3674 526.815 54.2138 546.412 63.1361C553.572 66.3956 558.351 70.2192 560.748 74.607C563.234 78.9617 563.385 83.5357 561.203 88.329C560.402 90.0885 559.386 91.6769 558.155 93.0942C557.012 94.4783 556.046 95.3937 555.257 95.8401L554.031 96.6008L537.922 89.2668C539.892 88.479 541.361 87.0233 542.328 84.8997C544.123 80.9558 542.442 77.8099 537.285 75.462C530.793 72.5063 526.607 73.0914 524.729 77.2173C523.79 79.2802 524.075 81.388 525.586 83.5407C527.096 85.6934 529.142 87.7967 531.723 89.8507C534.392 91.8717 536.979 94.0747 539.482 96.4597C541.985 98.8447 543.716 101.72 544.674 105.086C545.66 108.392 545.283 111.956 543.542 115.778C540.034 123.484 535.118 128.168 528.794 129.831C522.498 131.432 514.557 130.051 504.97 125.687C495.383 121.322 489.604 116.64 487.632 111.64C486.183 107.904 486.48 103.791 488.525 99.3011C489.298 97.6022 490.323 95.8345 491.598 93.9979L492.534 92.6661L508.916 100.124L508.237 101.134C507.84 101.685 507.53 102.204 507.309 102.689Z" fill="url(#paint7_linear_158_335)"/>
<defs>
<linearGradient id="paint0_linear_158_335" x1="552.788" y1="30.5489" x2="491.879" y2="164.336" gradientUnits="userSpaceOnUse">
<stop offset="0.32" stop-color="#2E3192"/>
</linearGradient>
<linearGradient id="paint1_linear_158_335" x1="552.788" y1="30.5489" x2="491.879" y2="164.336" gradientUnits="userSpaceOnUse">
<stop offset="0.32" stop-color="#2E3192"/>
</linearGradient>
<linearGradient id="paint2_linear_158_335" x1="552.788" y1="30.5489" x2="491.879" y2="164.336" gradientUnits="userSpaceOnUse">
<stop offset="0.32" stop-color="#2E3192"/>
</linearGradient>
<linearGradient id="paint3_linear_158_335" x1="552.788" y1="30.5489" x2="491.879" y2="164.336" gradientUnits="userSpaceOnUse">
<stop offset="0.32" stop-color="#2E3192"/>
</linearGradient>
<linearGradient id="paint4_linear_158_335" x1="552.788" y1="30.5489" x2="491.879" y2="164.336" gradientUnits="userSpaceOnUse">
<stop offset="0.32" stop-color="#2E3192"/>
</linearGradient>
<linearGradient id="paint5_linear_158_335" x1="552.788" y1="30.5489" x2="491.879" y2="164.336" gradientUnits="userSpaceOnUse">
<stop offset="0.32" stop-color="#2E3192"/>
</linearGradient>
<linearGradient id="paint6_linear_158_335" x1="552.788" y1="30.5489" x2="491.879" y2="164.336" gradientUnits="userSpaceOnUse">
<stop offset="0.32" stop-color="#2E3192"/>
</linearGradient>
<linearGradient id="paint7_linear_158_335" x1="552.788" y1="30.5489" x2="491.879" y2="164.336" gradientUnits="userSpaceOnUse">
<stop offset="0.32" stop-color="#2E3192"/>
</linearGradient>
</defs>
</svg>
