<svg width="80" height="80" viewBox="0 0 80 80" fill="none" xmlns="http://www.w3.org/2000/svg">
<path d="M66.2498 10H13.7498C9.84317 10 6.6665 12.99 6.6665 16.6667V63.3333C6.6665 67.01 9.84317 70 13.7498 70H66.2498C70.1565 70 73.3332 67.01 73.3332 63.3333V16.6667C73.3332 12.99 70.1565 10 66.2498 10ZM66.2498 63.3333H13.7498C13.5598 63.3333 13.4298 63.28 13.3732 63.28C13.3498 63.28 13.3365 63.2867 13.3332 63.3067L13.2932 16.82C13.3165 16.7867 13.4665 16.6667 13.7498 16.6667H66.2498C66.5132 16.67 66.6565 16.76 66.6665 16.6933L66.7065 63.18C66.6832 63.2133 66.5332 63.3333 66.2498 63.3333Z" fill="#EF8122"/>
<path d="M20 23.3335H40V43.3335H20V23.3335ZM43.3333 50.0002H20V56.6668H60V50.0002H46.6667H43.3333ZM46.6667 36.6668H60V43.3335H46.6667V36.6668ZM46.6667 23.3335H60V30.0002H46.6667V23.3335Z" fill="#EF8122"/>
</svg>
