<svg width="60" height="60" viewBox="0 0 60 60" fill="none" xmlns="http://www.w3.org/2000/svg">
<path d="M52.3677 20.7624C52.3425 18.869 51.988 16.9943 51.3202 15.2224C50.741 13.7278 49.8565 12.3704 48.7231 11.237C47.5897 10.1035 46.2323 9.21902 44.7377 8.63989C42.9885 7.98329 41.1406 7.62825 39.2727 7.58989C36.8677 7.48239 36.1052 7.45239 30.0002 7.45239C23.8952 7.45239 23.1127 7.45239 20.7252 7.58989C18.8581 7.62853 17.011 7.98356 15.2627 8.63989C13.7678 9.21862 12.4102 10.103 11.2768 11.2365C10.1433 12.3699 9.2589 13.7275 8.68018 15.2224C8.02225 16.9702 7.66798 18.8177 7.63268 20.6849C7.52518 23.0924 7.49268 23.8549 7.49268 29.9599C7.49268 36.0649 7.49268 36.8449 7.63268 39.2349C7.67018 41.1049 8.02268 42.9499 8.68018 44.7024C9.25987 46.1968 10.1449 47.5538 11.2788 48.6868C12.4126 49.8198 13.7703 50.7038 15.2652 51.2824C17.0088 51.9654 18.8561 52.3458 20.7277 52.4074C23.1352 52.5149 23.8977 52.5474 30.0027 52.5474C36.1077 52.5474 36.8902 52.5474 39.2777 52.4074C41.1456 52.3706 42.9936 52.0164 44.7427 51.3599C46.2369 50.7801 47.5939 49.8953 48.7273 48.762C49.8606 47.6287 50.7454 46.2716 51.3252 44.7774C51.9827 43.0274 52.3352 41.1824 52.3727 39.3099C52.4802 36.9049 52.5127 36.1424 52.5127 30.0349C52.5077 23.9299 52.5077 23.1549 52.3677 20.7624ZM29.9852 41.5049C23.6002 41.5049 18.4277 36.3324 18.4277 29.9474C18.4277 23.5624 23.6002 18.3899 29.9852 18.3899C33.0504 18.3899 35.9901 19.6076 38.1576 21.775C40.325 23.9425 41.5427 26.8822 41.5427 29.9474C41.5427 33.0126 40.325 35.9523 38.1576 38.1198C35.9901 40.2872 33.0504 41.5049 29.9852 41.5049ZM42.0027 20.6574C41.6487 20.6577 41.2981 20.5882 40.971 20.4529C40.6438 20.3176 40.3466 20.1191 40.0963 19.8688C39.846 19.6185 39.6475 19.3212 39.5122 18.9941C39.3768 18.667 39.3073 18.3164 39.3077 17.9624C39.3077 17.6086 39.3774 17.2584 39.5127 16.9315C39.6481 16.6047 39.8465 16.3078 40.0967 16.0576C40.3468 15.8075 40.6438 15.6091 40.9706 15.4737C41.2974 15.3383 41.6477 15.2686 42.0014 15.2686C42.3552 15.2686 42.7055 15.3383 43.0323 15.4737C43.3591 15.6091 43.6561 15.8075 43.9062 16.0576C44.1563 16.3078 44.3548 16.6047 44.4901 16.9315C44.6255 17.2584 44.6952 17.6086 44.6952 17.9624C44.6952 19.4524 43.4902 20.6574 42.0027 20.6574Z" fill="#EF8122"/>
<path d="M29.985 37.4549C34.1313 37.4549 37.4925 34.0937 37.4925 29.9474C37.4925 25.8012 34.1313 22.4399 29.985 22.4399C25.8388 22.4399 22.4775 25.8012 22.4775 29.9474C22.4775 34.0937 25.8388 37.4549 29.985 37.4549Z" fill="#EF8122"/>
</svg>
