<svg width="100" height="100" viewBox="0 0 100 100" fill="none" xmlns="http://www.w3.org/2000/svg">
<path d="M65.75 66C65.75 66 77.6667 54.1667 81.7083 50C94.5 37.5 88.125 11.7501 88.125 11.7501C88.125 11.7501 62.5 5.37505 50 18.1667C40.25 27.6667 33.9167 34.2501 33.9167 34.2501C33.9167 34.2501 17.9167 30.9167 8.33333 40.5001L59.375 91.6667C68.9583 81.9584 65.75 66 65.75 66ZM59.5 28.5001C60.2739 27.7253 61.193 27.1106 62.2047 26.6912C63.2163 26.2719 64.3007 26.056 65.3958 26.056C66.491 26.056 67.5754 26.2719 68.587 26.6912C69.5987 27.1106 70.5177 27.7253 71.2917 28.5001C72.4562 29.6659 73.2489 31.1507 73.5697 32.767C73.8905 34.3832 73.7249 36.0583 73.0939 37.5805C72.4629 39.1027 71.3948 40.4036 70.0246 41.3189C68.6544 42.2342 67.0436 42.7227 65.3958 42.7227C63.7481 42.7227 62.1373 42.2342 60.767 41.3189C59.3968 40.4036 58.3287 39.1027 57.6977 37.5805C57.0667 36.0583 56.9012 34.3832 57.2219 32.767C57.5427 31.1507 58.3355 29.6659 59.5 28.5001ZM12.5 87.5C20.2128 87.28 27.5965 84.3265 33.3333 79.1667L20.8333 66.6667C12.5 70.8334 12.5 87.5 12.5 87.5Z" fill="#EF8122"/>
</svg>
