<svg width="60" height="60" viewBox="0 0 60 60" fill="none" xmlns="http://www.w3.org/2000/svg">
<path d="M51.2177 42.8501L41.0552 33.6101C40.5748 33.1735 39.9436 32.9406 39.2947 32.9607C38.6459 32.9807 38.0302 33.2522 37.5777 33.7176L31.5952 39.8701C30.1552 39.5951 27.2602 38.6926 24.2802 35.7201C21.3002 32.7376 20.3977 29.8351 20.1302 28.4051L26.2777 22.4201C26.7437 21.9679 27.0156 21.3522 27.0356 20.7031C27.0557 20.0541 26.8224 19.4227 26.3852 18.9426L17.1477 8.78261C16.7103 8.301 16.1024 8.00887 15.4531 7.96826C14.8038 7.92765 14.1642 8.14175 13.6702 8.56511L8.24522 13.2176C7.81299 13.6514 7.55502 14.2287 7.52022 14.8401C7.48272 15.4651 6.76772 30.2701 18.2477 41.7551C28.2627 51.7676 40.8077 52.5001 44.2627 52.5001C44.7677 52.5001 45.0777 52.4851 45.1602 52.4801C45.7715 52.4459 46.3485 52.1868 46.7802 51.7526L51.4302 46.3251C51.8552 45.8327 52.0709 45.1936 52.0312 44.5444C51.9915 43.8951 51.6996 43.2871 51.2177 42.8501Z" fill="#EF8122"/>
</svg>
