<svg width="100" height="100" viewBox="0 0 100 100" fill="none" xmlns="http://www.w3.org/2000/svg">
<path d="M37.5 83.3333H62.5V91.6666H37.5V83.3333ZM70.4417 57.1333C74.7333 52.1083 79.1667 46.9124 79.1667 37.4999C79.1667 21.4208 66.0792 8.33325 50 8.33325C33.9208 8.33325 20.8333 21.4208 20.8333 37.4999C20.8333 47.0208 25.2792 52.1999 29.5875 57.2083C31.0792 58.9499 32.625 60.7541 34.1042 62.8291C34.7042 63.6874 35.6875 66.9791 36.5667 70.8333H33.2667V79.1666H66.7333V70.8333H63.4417C64.3292 66.9708 65.3167 63.6708 65.9125 62.8124C67.3792 60.7166 68.9375 58.8958 70.4417 57.1333Z" fill="#EF8122"/>
</svg>
