<svg width="70" height="70" viewBox="0 0 70 70" fill="none" xmlns="http://www.w3.org/2000/svg">
<path d="M66.5 0H42C39.4085 0.00923948 36.9132 1.03367 35 2.87372C33.0868 1.03367 30.5915 0.00923948 28 0H3.5C2.57174 0 1.6815 0.388162 1.02513 1.07909C0.368749 1.77003 0 2.70713 0 3.68426V58.9481C0 59.9253 0.368749 60.8624 1.02513 61.5533C1.6815 62.2442 2.57174 62.6324 3.5 62.6324H23.653C25.494 62.6324 27.3 63.4208 28.602 64.7914L32.5255 68.9214C32.557 68.9546 32.599 68.9656 32.6305 68.9988C32.9315 69.2899 33.2675 69.5477 33.6595 69.7209H33.6665C34.5204 70.093 35.4796 70.093 36.3335 69.7209H36.3405C36.7325 69.5477 37.0685 69.2899 37.3695 68.9988C37.401 68.9656 37.443 68.9546 37.4745 68.9214L41.398 64.7914C42.7137 63.4145 44.4918 62.6388 46.347 62.6324H66.5C67.4283 62.6324 68.3185 62.2442 68.9749 61.5533C69.6313 60.8624 70 59.9253 70 58.9481V3.68426C70 2.70713 69.6313 1.77003 68.9749 1.07909C68.3185 0.388162 67.4283 0 66.5 0ZM23.653 55.2639H7V7.36852H28C29.932 7.36852 31.5 9.02275 31.5 11.0528V57.8023C29.1811 56.1563 26.4498 55.2728 23.653 55.2639ZM63 55.2639H46.347C43.5505 55.2639 40.803 56.1702 38.5 57.8023V11.0528C38.5 9.02275 40.068 7.36852 42 7.36852H63V55.2639Z" fill="#2E3192"/>
</svg>
