<svg width="60" height="60" viewBox="0 0 60 60" fill="none" xmlns="http://www.w3.org/2000/svg">
<path d="M50 10H10C8.67392 10 7.40215 10.5268 6.46447 11.4645C5.52678 12.4021 5 13.6739 5 15V45C5 46.3261 5.52678 47.5979 6.46447 48.5355C7.40215 49.4732 8.67392 50 10 50H50C51.3261 50 52.5979 49.4732 53.5355 48.5355C54.4732 47.5979 55 46.3261 55 45V15C55 13.6739 54.4732 12.4021 53.5355 11.4645C52.5979 10.5268 51.3261 10 50 10ZM50 21.75L30 35.085L10 21.75V15.7425L30 29.075L50 15.7425V21.75Z" fill="#EF8122"/>
</svg>
