<svg width="50" height="50" viewBox="0 0 50 50" fill="none" xmlns="http://www.w3.org/2000/svg">
<path d="M41.6665 25.0002C41.1656 25.0037 40.6695 25.0976 40.2019 25.2772L35.2061 21.1877C35.329 20.7418 35.4165 20.2793 35.4165 19.7918C35.4165 16.9043 33.0957 14.5835 30.2082 14.5835C27.3207 14.5835 24.9998 16.9043 24.9998 19.7918C24.9998 20.6168 25.2082 21.3856 25.5457 22.0772L19.4853 29.2397C19.2427 29.1943 18.9966 29.1699 18.7498 29.1668C18.3769 29.1668 18.0248 29.2293 17.6832 29.321L12.3436 23.9814C12.4373 23.6418 12.4998 23.2897 12.4998 22.9168C12.4998 20.6085 10.6415 18.7502 8.33317 18.7502C6.02484 18.7502 4.1665 20.6085 4.1665 22.9168C4.1665 25.2252 6.02484 27.0835 8.33317 27.0835C8.70609 27.0835 9.05817 27.021 9.39984 26.9293L14.7394 32.2689C14.6393 32.615 14.5867 32.9732 14.5832 33.3335C14.5832 35.6418 16.4415 37.5002 18.7498 37.5002C21.0582 37.5002 22.9165 35.6418 22.9165 33.3335C22.9165 32.8397 22.8165 32.3752 22.6603 31.9356L28.729 24.7647C29.2019 24.9022 29.6915 25.0002 30.2082 25.0002C31.0303 24.9956 31.8396 24.7949 32.5686 24.4147L37.5665 28.5043C37.5273 28.7231 37.505 28.9446 37.4998 29.1668C37.4998 31.4752 39.3582 33.3335 41.6665 33.3335C43.9748 33.3335 45.8332 31.4752 45.8332 29.1668C45.8332 26.8585 43.9748 25.0002 41.6665 25.0002Z" fill="#2E3192"/>
</svg>
