<svg width="40" height="40" viewBox="0 0 40 40" fill="none" xmlns="http://www.w3.org/2000/svg">
<path d="M33.1252 5H6.87516C4.92183 5 3.3335 6.495 3.3335 8.33333V31.6667C3.3335 33.505 4.92183 35 6.87516 35H33.1252C35.0785 35 36.6668 33.505 36.6668 31.6667V8.33333C36.6668 6.495 35.0785 5 33.1252 5ZM33.1252 31.6667H6.87516C6.78016 31.6667 6.71516 31.64 6.68683 31.64C6.67516 31.64 6.6685 31.6433 6.66683 31.6533L6.64683 8.41C6.6585 8.39333 6.7335 8.33333 6.87516 8.33333H33.1252C33.2568 8.335 33.3285 8.38 33.3335 8.34667L33.3535 31.59C33.3418 31.6067 33.2668 31.6667 33.1252 31.6667Z" fill="#2E3192"/>
<path d="M10 11.667H20V21.667H10V11.667ZM21.6667 25.0003H10V28.3337H30V25.0003H23.3333H21.6667ZM23.3333 18.3337H30V21.667H23.3333V18.3337ZM23.3333 11.667H30V15.0003H23.3333V11.667Z" fill="#2E3192"/>
</svg>
