<svg width="30" height="30" viewBox="0 0 30 30" fill="none" xmlns="http://www.w3.org/2000/svg">
<path d="M11.875 15C14.6325 15 16.875 12.7575 16.875 10C16.875 7.2425 14.6325 5 11.875 5C9.1175 5 6.875 7.2425 6.875 10C6.875 12.7575 9.1175 15 11.875 15ZM13.75 16.25H10C5.86375 16.25 2.5 19.6137 2.5 23.75V25H21.25V23.75C21.25 19.6137 17.8863 16.25 13.75 16.25Z" fill="#2E3192"/>
<path d="M20.7552 13.81C21.5165 12.5126 21.8453 11.0066 21.694 9.50996C21.4702 7.27996 20.2252 5.30871 18.1902 3.95996L16.809 6.04246C18.2077 6.96996 19.059 8.29121 19.2065 9.75996C19.2745 10.4426 19.1895 11.1318 18.9577 11.7774C18.7259 12.4231 18.3531 13.009 17.8665 13.4925L16.3765 14.9825L18.399 15.5762C23.689 17.1262 23.7502 22.4462 23.7502 22.5H26.2502C26.2502 20.2637 25.0552 15.8937 20.7552 13.81Z" fill="#2E3192"/>
</svg>
