<svg width="40" height="40" viewBox="0 0 40 40" fill="none" xmlns="http://www.w3.org/2000/svg">
<path d="M15.8335 19.9998C19.5102 19.9998 22.5002 17.0098 22.5002 13.3332C22.5002 9.6565 19.5102 6.6665 15.8335 6.6665C12.1568 6.6665 9.16683 9.6565 9.16683 13.3332C9.16683 17.0098 12.1568 19.9998 15.8335 19.9998ZM18.3335 21.6665H13.3335C7.8185 21.6665 3.3335 26.1515 3.3335 31.6665V33.3332H28.3335V31.6665C28.3335 26.1515 23.8485 21.6665 18.3335 21.6665Z" fill="#2E3192"/>
<path d="M27.6733 18.4131C28.6884 16.6833 29.1267 14.6753 28.925 12.6798C28.6266 9.70645 26.9666 7.07812 24.2533 5.27979L22.4116 8.05645C24.2766 9.29312 25.4116 11.0548 25.6083 13.0131C25.699 13.9233 25.5857 14.8422 25.2766 15.7031C24.9675 16.564 24.4705 17.3451 23.8216 17.9898L21.835 19.9765L24.5316 20.7681C31.585 22.8348 31.6666 29.9281 31.6666 29.9998H35C35 27.0181 33.4066 21.1915 27.6733 18.4131Z" fill="#2E3192"/>
</svg>
