<svg width="30" height="30" viewBox="0 0 30 30" fill="none" xmlns="http://www.w3.org/2000/svg">
<path d="M23.754 10.005C25.1361 10.005 26.2565 8.88459 26.2565 7.5025C26.2565 6.12041 25.1361 5 23.754 5C22.3719 5 21.2515 6.12041 21.2515 7.5025C21.2515 8.88459 22.3719 10.005 23.754 10.005Z" fill="#2E3192"/>
<path d="M23.5938 16.5236C22.885 17.0899 22.3712 17.4999 21.2462 17.4999C20.1225 17.4999 19.6363 17.1111 18.9013 16.5236C18.0513 15.8449 16.995 14.9999 14.9925 14.9999C12.9913 14.9999 11.9362 15.8449 11.0875 16.5236C10.3525 17.1111 9.86875 17.4999 8.74375 17.4999C7.62125 17.4999 7.13625 17.1111 6.4025 16.5249C5.55375 15.8449 4.5 14.9999 2.5 14.9999V17.4999C3.62125 17.4999 4.10625 17.8886 4.84 18.4749C5.68875 19.1549 6.74375 19.9999 8.74375 19.9999C10.7437 19.9999 11.8012 19.1549 12.65 18.4749C13.3837 17.8874 13.87 17.4999 14.9925 17.4999C16.1175 17.4999 16.6312 17.9099 17.34 18.4761C18.1887 19.1549 19.245 19.9999 21.2462 19.9999C23.2487 19.9999 24.305 19.1549 25.155 18.4761C25.89 17.8886 26.3763 17.4999 27.5 17.4999V14.9999C25.4988 14.9999 24.4425 15.8449 23.5938 16.5236ZM21.2462 23.7499C20.1225 23.7499 19.6363 23.3611 18.9013 22.7736C18.0513 22.0949 16.995 21.2499 14.9925 21.2499C12.9913 21.2499 11.9362 22.0949 11.0875 22.7736C10.3525 23.3611 9.86875 23.7499 8.74375 23.7499C7.62125 23.7499 7.13625 23.3611 6.4025 22.7749C5.55375 22.0949 4.5 21.2499 2.5 21.2499V23.7499C3.62125 23.7499 4.10625 24.1386 4.84 24.7249C5.68875 25.4049 6.74375 26.2499 8.74375 26.2499C10.7437 26.2499 11.8012 25.4049 12.65 24.7249C13.3837 24.1374 13.87 23.7499 14.9925 23.7499C16.1175 23.7499 16.6312 24.1599 17.34 24.7261C18.1887 25.4049 19.245 26.2499 21.2462 26.2499C23.2487 26.2499 24.305 25.4049 25.155 24.7261C25.89 24.1386 26.3763 23.7499 27.5 23.7499V21.2499C25.4988 21.2499 24.4425 22.0949 23.5938 22.7736C22.885 23.3399 22.3712 23.7499 21.2462 23.7499ZM13.75 6.77361L16.38 9.40361L13.8087 12.6161C14.1662 12.5461 14.5538 12.4999 14.9925 12.4999C16.995 12.4999 18.0513 13.3449 18.9013 14.0236C19.6363 14.6111 20.1225 14.9999 21.2462 14.9999C22.3712 14.9999 22.885 14.5899 23.5938 14.0236C23.7587 13.8924 23.9363 13.7524 24.1225 13.6161L21.5025 11.0036L21.5088 10.9974L14.6337 4.12236C14.5178 4.00618 14.38 3.91401 14.2284 3.85112C14.0767 3.78823 13.9142 3.75586 13.75 3.75586C13.5858 3.75586 13.4233 3.78823 13.2716 3.85112C13.12 3.91401 12.9822 4.00618 12.8663 4.12236L7.86625 9.12236L9.63375 10.8899L13.75 6.77361Z" fill="#2E3192"/>
</svg>
