<svg width="30" height="30" viewBox="0 0 30 30" fill="none" xmlns="http://www.w3.org/2000/svg">
<path d="M26.25 25V7.5C26.25 6.12125 25.1288 5 23.75 5H21.25V2.5H18.75V5H11.25V2.5H8.75V5H6.25C4.87125 5 3.75 6.12125 3.75 7.5V25C3.75 26.3788 4.87125 27.5 6.25 27.5H23.75C25.1288 27.5 26.25 26.3788 26.25 25ZM11.25 22.5H8.75V20H11.25V22.5ZM11.25 17.5H8.75V15H11.25V17.5ZM16.25 22.5H13.75V20H16.25V22.5ZM16.25 17.5H13.75V15H16.25V17.5ZM21.25 22.5H18.75V20H21.25V22.5ZM21.25 17.5H18.75V15H21.25V17.5ZM23.75 11.25H6.25V8.75H23.75V11.25Z" fill="#2E3192"/>
</svg>
