<svg width="30" height="30" viewBox="0 0 30 30" fill="none" xmlns="http://www.w3.org/2000/svg">
<path d="M25 15C24.6995 15.0021 24.4018 15.0585 24.1213 15.1663L21.1238 12.7125C21.1975 12.445 21.25 12.1675 21.25 11.875C21.25 10.1425 19.8575 8.75 18.125 8.75C16.3925 8.75 15 10.1425 15 11.875C15 12.37 15.125 12.8313 15.3275 13.2463L11.6912 17.5437C11.5457 17.5165 11.3981 17.5019 11.25 17.5C11.0262 17.5 10.815 17.5375 10.61 17.5925L7.40625 14.3887C7.4625 14.185 7.5 13.9738 7.5 13.75C7.5 12.365 6.385 11.25 5 11.25C3.615 11.25 2.5 12.365 2.5 13.75C2.5 15.135 3.615 16.25 5 16.25C5.22375 16.25 5.435 16.2125 5.64 16.1575L8.84375 19.3613C8.78366 19.5689 8.75212 19.7838 8.75 20C8.75 21.385 9.865 22.5 11.25 22.5C12.635 22.5 13.75 21.385 13.75 20C13.75 19.7037 13.69 19.425 13.5962 19.1613L17.2375 14.8588C17.5212 14.9413 17.815 15 18.125 15C18.6183 14.9973 19.1038 14.8769 19.5413 14.6487L22.54 17.1025C22.5165 17.2338 22.5031 17.3667 22.5 17.5C22.5 18.885 23.615 20 25 20C26.385 20 27.5 18.885 27.5 17.5C27.5 16.115 26.385 15 25 15Z" fill="#2E3192"/>
</svg>
