<svg width="30" height="30" viewBox="0 0 30 30" fill="none" xmlns="http://www.w3.org/2000/svg">
<path d="M26.25 6.25C26.25 4.87125 25.1288 3.75 23.75 3.75H6.25C4.87125 3.75 3.75 4.87125 3.75 6.25V23.75C3.75 25.1288 4.87125 26.25 6.25 26.25H23.75C25.1288 26.25 26.25 25.1288 26.25 23.75V6.25ZM6.25 23.75V6.25H23.75L23.7525 23.75H6.25Z" fill="#2E3192"/>
<path d="M8.75 8.75H11.2475V11.25H8.75V8.75ZM13.75 8.75H21.25V11.25H13.75V8.75ZM8.75 13.75H11.2475V16.25H8.75V13.75ZM13.75 13.75H21.25V16.25H13.75V13.75ZM8.75 18.75H11.2475V21.25H8.75V18.75ZM13.75 18.75H21.25V21.25H13.75V18.75Z" fill="#2E3192"/>
</svg>
