<svg width="30" height="30" viewBox="0 0 30 30" fill="none" xmlns="http://www.w3.org/2000/svg">
<path fill-rule="evenodd" clip-rule="evenodd" d="M0.831183 0.831183C1.93943 -0.277061 3.73625 -0.277061 4.84449 0.831183L15 10.9867L25.1555 0.831184C26.2638 -0.277061 28.0606 -0.277061 29.1688 0.831183C30.2771 1.93943 30.2771 3.73625 29.1688 4.84449L19.0133 15L29.1688 25.1555C30.2771 26.2638 30.2771 28.0606 29.1688 29.1688C28.0606 30.2771 26.2638 30.2771 25.1555 29.1688L15 19.0133L4.84449 29.1688C3.73625 30.2771 1.93943 30.2771 0.831184 29.1688C-0.277061 28.0606 -0.277061 26.2638 0.831183 25.1555L10.9867 15L0.831183 4.84449C-0.277061 3.73625 -0.277061 1.93943 0.831183 0.831183Z" fill="#F8FBFF"/>
</svg>
