<svg width="30" height="30" viewBox="0 0 30 30" fill="none" xmlns="http://www.w3.org/2000/svg">
<path d="M23.735 2.51465L27.485 6.26465L24.6263 9.12465L20.8763 5.37465L23.735 2.51465ZM10 19.9996H13.75L22.8588 10.8909L19.1087 7.1409L10 16.2496V19.9996Z" fill="#F8FBFF"/>
<path d="M23.75 23.75H10.1975C10.165 23.75 10.1313 23.7625 10.0988 23.7625C10.0575 23.7625 10.0163 23.7513 9.97375 23.75H6.25V6.25H14.8088L17.3088 3.75H6.25C4.87125 3.75 3.75 4.87 3.75 6.25V23.75C3.75 25.13 4.87125 26.25 6.25 26.25H23.75C24.413 26.25 25.0489 25.9866 25.5178 25.5178C25.9866 25.0489 26.25 24.413 26.25 23.75V12.915L23.75 15.415V23.75Z" fill="#F8FBFF"/>
</svg>
