<svg width="661" height="237" viewBox="0 0 661 237" fill="none" xmlns="http://www.w3.org/2000/svg">
<path d="M283.46 190.16C283.46 190.16 232.22 194.5 210.24 195.48C188.26 196.46 138.28 165.1 129.18 161.32C120.08 157.54 94.88 146.62 86.48 145.36C77.52 143.96 58.2 142.42 54.7 131.5C52.18 123.8 61.14 123.38 65.9 122.54C75.14 121 98.94 120.3 101.88 122.54C104.82 124.78 107.2 128.84 108.6 129.68C110 130.52 187.28 146.62 194.56 149.28C201.84 151.94 261.9 149.28 261.9 149.28L283.46 190.16Z" fill="white"/>
<path d="M209.26 196.6C191.76 196.6 158.58 178.4 140.66 168.6C135.2 165.66 130.86 163.14 128.76 162.3L124.98 160.76C114.06 156.14 93.62 147.6 86.34 146.48L83.68 146.06C73.74 144.66 57.08 142.42 53.72 131.92C52.88 130.1 53.02 127.86 54 126.18C55.96 123.1 60.72 122.4 64.22 121.84L65.76 121.56C73.88 120.16 98.94 119.04 102.58 121.7C104.26 123.1 105.8 124.78 107.06 126.46C107.62 127.3 108.46 128.14 109.16 128.84C110.28 129.26 126.24 132.76 141.78 136.12C164.74 141.16 190.78 146.76 194.84 148.3C200.44 150.26 241.04 149.14 261.76 148.3C262.18 148.3 262.6 148.58 262.74 148.86L284.3 189.6C284.58 190.16 284.44 190.72 283.88 191C283.74 191 283.6 191.14 283.46 191.14C282.9 191.14 231.94 195.48 210.1 196.46L209.26 196.6ZM88.3 122.26C80.88 122.26 73.46 122.68 66.18 123.66L64.64 123.94C61.56 124.36 57.36 125.06 55.96 127.3C55.26 128.56 55.26 130.1 55.82 131.36C58.76 140.74 74.58 142.84 84.1 144.1L86.76 144.52C94.32 145.64 114.9 154.32 125.96 158.94L129.74 160.48C131.84 161.32 136.04 163.7 141.78 166.78C159.56 176.58 192.32 194.5 209.26 194.5H210.24C229.84 193.66 273.1 190.02 281.92 189.32L261.48 150.54C254.48 150.82 201.42 153.06 194.42 150.4C190.36 149 163.34 142.98 141.5 138.36C115.88 132.76 108.88 131.22 108.18 130.8C107.2 129.96 106.22 129.12 105.52 128C104.4 126.32 103 124.92 101.46 123.66C100.2 122.54 94.74 122.26 88.3 122.26Z" fill="#231F20"/>
<path d="M240.76 128.42C240.76 128.42 201.42 161.32 192.6 163.28C183.78 165.24 103 188.34 92.64 185.4C82.28 182.46 77.66 181.2 73.74 183.72C69.82 186.24 50.92 197.86 43.92 201.78C38.32 204.86 34.68 206.68 34.12 213.96C33.7 216.06 33.98 218.3 34.82 220.26C37.06 224.04 47.7 218.44 51.48 218.16C62.4 217.46 91.66 208.36 91.66 208.36C91.66 208.36 200.86 204.44 219.06 201.08C237.26 197.72 266.1 180.08 266.1 180.08" fill="white"/>
<path d="M37.9 222.64C36.36 222.78 34.82 222.08 33.98 220.82C33 218.58 32.72 216.2 33 213.82C33.56 206.26 37.34 204.16 42.66 201.22L43.36 200.8C50.64 196.74 69.4 185.26 73.18 182.74C77.52 179.8 82.42 181.2 92.92 184.28C100.9 186.52 155.64 171.96 179.16 165.8C185.88 163.98 190.64 162.72 192.6 162.3C199.46 160.76 226.76 139.06 240.34 127.72C240.76 127.3 241.46 127.44 241.88 127.86C242.3 128.28 242.16 128.98 241.74 129.4C240.2 130.8 202.12 162.44 193.16 164.4C191.34 164.82 186.58 166.08 179.86 167.9C138.98 178.82 100.06 188.62 92.64 186.38C82.42 183.44 78.22 182.18 74.58 184.56C70.66 187.08 51.9 198.56 44.62 202.62L43.92 203.04C38.74 205.98 35.8 207.52 35.38 213.96C35.1 215.92 35.24 217.88 36.08 219.7C37.2 221.52 42.66 219.7 46.3 218.58C48.12 217.88 49.94 217.46 51.76 217.18C62.54 216.48 91.52 207.52 91.8 207.38C91.94 207.38 91.94 207.38 92.08 207.38C93.2 207.38 201.42 203.46 219.34 200.1C237.26 196.74 265.68 179.38 265.96 179.24C266.38 178.96 267.08 179.1 267.36 179.52C267.64 179.94 267.5 180.64 267.08 180.92C265.96 181.62 237.96 198.84 219.62 202.06C201.56 205.28 98.38 209.06 92.22 209.34C89.84 210.04 62.54 218.58 51.9 219.14C50.22 219.42 48.54 219.98 47 220.54C43.78 221.66 40.84 222.36 37.9 222.64Z" fill="#231F20"/>
<path d="M457.76 124.5C471.48 126.46 611.34 197.16 617.64 200.38C623.94 203.6 646.48 214.8 654.46 221.8C662.44 228.8 659.08 233.28 657.4 234.26C655.72 235.24 648.86 227.96 643.26 225.44C637.66 222.92 623.52 221.52 623.52 221.52C623.52 221.52 627.44 232.3 624.78 234.96C622.12 237.62 621.14 233.7 618.2 230.34C615.26 226.98 612.32 217.6 608.68 215.22C605.04 212.84 453.98 170.56 453.98 170.56C427.38 183.02 335.54 180.64 335.54 180.64C318.46 156 302.36 101.96 302.36 101.96C302.36 101.96 313.56 103.78 335.82 100.7C358.08 97.6199 394.62 85.44 394.62 85.44C379.08 67.24 371.66 37.9799 371.66 37.9799C365.5 53.7999 332.04 83.6199 323.08 88.7999C314.12 93.9799 288.5 96.2199 281.92 94.6799C275.34 93.1399 272.54 91.88 272.26 88.7999C271.98 85.72 285.42 87.82 285.42 87.82C285.42 87.82 272.54 86.2799 269.04 83.4799C265.54 80.6799 266.66 78.86 267.5 77.32C268.34 75.78 285.84 80.54 285.84 80.54C282.06 79.84 278.56 78.5799 275.06 76.7599C270.86 74.3799 269.6 68.64 271.98 68.22C274.36 67.8 287.8 74.1 287.8 74.1C287.8 74.1 281.22 70.8799 278.84 68.3599C277.44 67.0999 277.3 65 278.56 63.5999C279.12 63.0399 279.82 62.6199 280.52 62.4799C282.9 62.0599 289.48 66.8199 292.14 68.3599C294.8 69.8999 312.02 66.82 312.02 66.82C312.02 66.82 360.18 -5.84006 377.82 1.15994C395.46 8.15994 452.3 96.4999 452.3 96.4999" fill="white"/>
<path d="M623.24 236.92H622.96C621.56 236.78 620.58 235.38 619.46 233.84C618.9 232.86 618.2 232.02 617.36 231.18C615.82 229.08 614.42 226.84 613.44 224.46C611.76 221.1 609.94 217.46 608.12 216.2C604.62 214.24 496.12 183.58 454.12 171.82C427.24 184.14 339.32 181.9 335.54 181.9C335.26 181.9 334.84 181.76 334.7 181.48C317.76 156.98 301.52 103.08 301.38 102.52C301.24 102.24 301.38 101.82 301.52 101.54C301.8 101.26 302.08 101.12 302.5 101.26C302.64 101.26 313.84 102.94 335.68 99.9999C355.14 97.3399 385.8 87.5399 392.8 85.2999C380.76 70.4599 373.62 49.0399 371.38 41.4799C362.84 57.8599 332.32 85.0199 323.5 90.1999C314.4 95.6599 288.36 97.7599 281.5 96.2199C274.64 94.6799 271.28 93.1399 271 89.3599C271 88.7999 271.14 88.0999 271.7 87.8199C272.12 87.5399 272.54 87.2599 273.1 87.1199C271.28 86.6999 269.6 85.8599 268.2 84.8799C264 81.5199 265.4 79.1399 266.38 77.4599C266.66 76.8999 267.22 76.0599 272.68 77.0399C270.72 75.3599 269.6 72.6999 269.74 70.1799C269.88 69.0599 270.72 68.2199 271.7 67.9399C273.66 68.0799 275.62 68.4999 277.44 69.34C276.6 68.2199 276.32 66.8199 276.74 65.4199C277.3 63.7399 278.56 62.6199 280.38 62.1999C282.48 61.7799 285.98 64.0199 290.46 66.8199C291.3 67.3799 292.14 67.9399 292.7 68.2199C294.1 69.0599 303.34 68.0799 311.46 66.6799C315.66 60.3799 360.6 -6.12006 378.24 1.01994C395.88 8.15994 450.9 93.1399 453.14 96.6399C453.42 97.0599 453.28 97.7599 452.86 98.0399C452.44 98.3199 451.74 98.1799 451.46 97.7599C450.9 96.9199 394.48 9.69995 377.54 2.83995C363.82 -2.62005 326.3 48.1999 313.14 68.2199C313 68.4999 312.72 68.6399 312.44 68.6399C308.24 69.34 294.52 71.5799 291.72 70.0399C291.16 69.7599 290.32 69.1999 289.48 68.6399C287.1 67.0999 282.34 64.0199 280.94 64.2999C279.96 64.4399 279.26 65.1399 278.98 65.9799C278.7 66.8199 278.98 67.7999 279.68 68.3599C281.92 70.5999 288.36 73.8199 288.36 73.8199C288.92 74.0999 289.06 74.6599 288.78 75.2199C288.5 75.7799 287.94 75.9199 287.38 75.7799C281.08 72.8399 273.52 69.7599 272.26 69.8999C272.12 69.8999 271.98 69.8999 271.98 70.3199C271.7 71.8599 273.1 74.9399 275.62 76.4799C277.3 77.4599 279.26 78.1599 281.08 78.7199C282.62 79.1399 284.3 79.5599 286.12 80.1199C286.68 80.2599 286.96 80.8199 286.82 81.3799C286.68 81.9399 286.12 82.2199 285.56 82.0799C285.42 82.0799 283.32 81.6599 280.66 80.8199C274.92 79.4199 269.46 78.2999 268.06 78.5799C267.22 79.9799 266.94 80.9599 269.46 83.0599C271.7 84.8799 278.56 86.2799 282.9 86.84L285.42 87.1199C285.98 87.2599 286.4 87.6799 286.26 88.3799C286.12 88.9399 285.7 89.3599 285.14 89.2199C284.86 89.2199 283.88 89.0799 282.62 88.9399C277.86 88.3799 273.66 88.5199 273.1 89.2199C273.24 91.3199 275.48 92.5799 281.92 93.9799C288.36 95.3799 313.7 93.2799 322.38 88.2399C331.2 83.0599 364.66 53.2399 370.54 37.8399C370.68 37.4199 371.1 37.1399 371.52 37.1399C371.94 37.1399 372.36 37.4199 372.5 37.9799C372.5 38.2599 380.06 67.2399 395.32 85.0199C395.74 85.4399 395.6 86.1399 395.18 86.5599C395.04 86.6999 394.9 86.6999 394.76 86.6999C394.34 86.8399 357.94 98.8799 335.68 102.1C318.04 104.62 307.4 104.06 303.48 103.64C306.28 112.6 320.7 157.96 335.68 180.08C343.24 180.22 428.22 181.76 453.14 170.14C453.42 170 453.7 170 453.84 170.14C469.24 174.34 605.18 212.28 608.82 214.66C611.2 216.2 613.02 219.98 614.98 223.76C615.96 226 617.22 228.1 618.62 230.06C619.46 230.9 620.16 231.88 620.86 232.86C621.56 233.84 622.4 235.1 622.82 235.1C623.1 234.96 623.52 234.82 623.66 234.54C625.2 233 623.66 226.42 622.12 222.22C621.98 221.94 622.12 221.52 622.26 221.24C622.54 220.96 622.82 220.82 623.24 220.82C623.8 220.82 637.66 222.22 643.26 224.88C646.2 226.42 648.86 228.24 651.38 230.34C653.34 231.74 655.86 233.7 656.56 233.7C657.4 233 657.82 232.02 657.96 230.9C658.1 229.22 657.4 226.56 653.34 222.92C646.62 217.04 628.84 207.94 620.3 203.6L616.66 201.78C610.08 198.28 470.5 127.86 457.2 126.04C456.64 125.9 456.22 125.48 456.36 124.78C456.5 124.22 456.92 123.8 457.62 123.94C471.48 126.04 610.92 196.32 617.78 199.96L621.28 201.78C629.96 206.26 647.88 215.5 654.74 221.38C659.5 225.58 660.34 228.94 660.2 231.18C660.06 233 659.08 234.68 657.68 235.66C656.14 236.5 654.04 234.82 650.26 232.02C647.88 230.06 645.22 228.24 642.56 226.84C638.36 224.88 628.7 223.62 624.78 223.2C625.9 226.7 627.72 233.7 625.34 236.22C625.06 236.36 624.22 236.78 623.24 236.92Z" fill="#231F20"/>
<path d="M437.32 145.08C442.08 147.04 447.26 147.6 452.44 146.9C454.26 146.76 456.08 145.92 457.34 144.52C458.18 143.26 458.6 142 458.74 140.6C459.3 137.66 459.86 134.58 459.02 131.78C457.62 126.88 452.58 123.94 447.68 122.26C441.24 120.02 426.26 115.26 423.46 124.78C420.8 133.88 429.62 142.14 437.32 145.08Z" fill="#231F20"/>
<path d="M448.24 148.3C444.32 148.3 440.54 147.46 436.9 146.06C429.2 143.12 419.68 134.44 422.48 124.36C423.04 122.12 424.58 120.3 426.68 119.18C432.28 116.24 441.66 118.9 448.1 121.14C454.54 123.38 458.74 126.88 460 131.36C460.84 134.58 460.28 137.94 459.72 140.74C459.58 142.28 458.88 143.82 458.04 145.22C456.64 146.76 454.68 147.74 452.58 148.02C451.18 148.16 449.64 148.3 448.24 148.3ZM437.6 144.1C442.22 145.92 447.26 146.62 452.16 145.92C453.7 145.78 455.24 145.08 456.36 143.96C457.06 142.84 457.48 141.58 457.62 140.32C458.18 137.66 458.74 134.72 458.04 131.92C456.64 127.16 451.46 124.5 447.4 123.1C443.9 121.84 433.12 118.2 427.66 121C426.12 121.84 425 123.24 424.58 124.92C421.92 133.74 430.6 141.44 437.6 144.1Z" fill="#231F20"/>
<path d="M460.84 144.24C462.38 144.24 463.78 144.38 465.32 144.66C472.46 145.64 479.74 146.2 487.02 146.48C489.54 146.48 491.78 127.86 491.78 126.32C492.2 119.6 491.5 112.88 489.68 106.44C488 100.98 484.64 88.7999 477.5 89.7799C469.38 90.7599 461.12 91.8799 453 93.2799C445.86 94.5399 438.58 96.7799 433.12 101.68C427.24 107 424.3 114.7 425 122.54C425.98 130.52 432.7 136.26 439.14 140.18C446.56 144.66 453.28 143.96 460.84 144.24Z" fill="white"/>
<path d="M487.02 147.46C479.74 147.32 472.46 146.62 465.18 145.64C463.78 145.5 462.38 145.36 460.7 145.22C459.44 145.22 458.18 145.08 456.92 145.08C450.76 144.94 444.88 144.8 438.58 141.02C429.62 135.7 424.72 129.4 423.88 122.54C423.18 114.28 426.26 106.3 432.42 100.7C437.18 96.3599 443.9 93.5599 452.86 92.0199C460.7 90.6199 468.68 89.6399 477.36 88.5199C485.06 87.5399 488.7 99.7199 490.52 105.46L490.66 105.88C492.62 112.46 493.32 119.32 492.9 126.18C492.9 126.6 490.94 147.46 487.02 147.46ZM478.2 90.7599C478.06 90.7599 477.78 90.7599 477.64 90.7599C468.96 91.8799 460.98 92.8599 453.14 94.2599C444.6 95.6599 438.3 98.4599 433.82 102.38C428.22 107.42 425.28 114.84 425.98 122.4C426.68 128.56 431.3 134.3 439.7 139.34C445.58 142.84 451.04 142.98 456.92 143.12C458.18 143.12 459.44 143.12 460.84 143.26C462.52 143.4 464.06 143.4 465.46 143.68C472.6 144.66 479.6 145.22 486.74 145.5C488.28 143.82 490.38 129.68 490.66 126.32C491.08 119.74 490.38 113.16 488.56 106.86L488.42 106.44C487.02 101.12 483.94 90.7599 478.2 90.7599Z" fill="#231F20"/>
<path d="M461.26 136.12C463.36 136.4 465.32 137.38 466.72 138.78C467.98 140.18 469.1 141.86 469.8 143.68C470.36 144.66 470.64 145.64 470.64 146.76C470.64 147.46 470.5 148.3 470.08 149C469.52 150.68 468.26 152.08 466.72 152.92C465.46 153.48 463.92 153.76 462.52 153.62C460.98 153.62 459.44 153.34 457.9 152.92C451.74 151.1 448.24 144.52 450.06 138.22V138.08" fill="white"/>
<path d="M463.5 154.6H462.8C461.12 154.6 459.44 154.32 457.9 153.9C451.18 151.8 447.26 144.8 449.36 137.94V137.8C449.5 137.24 450.06 136.96 450.62 137.1C451.18 137.24 451.46 137.8 451.32 138.36C449.5 143.96 452.58 149.98 458.18 151.8H458.32C459.72 152.22 461.12 152.36 462.66 152.36C463.92 152.5 465.18 152.22 466.3 151.8C467.56 150.96 468.54 149.84 469.1 148.3C469.38 147.74 469.52 147.18 469.52 146.48C469.52 145.5 469.24 144.66 468.68 143.82C467.98 142.14 467 140.6 465.74 139.2C464.34 137.94 462.66 137.1 460.84 136.82C460.28 136.68 459.86 136.12 459.86 135.56C459.86 135 460.56 134.58 461.12 134.58C463.5 134.86 465.6 135.98 467.28 137.52C468.68 139.06 469.8 140.74 470.64 142.7C471.2 143.82 471.62 144.94 471.62 146.2C471.62 147.04 471.34 148.02 470.92 148.86C470.22 150.82 468.82 152.36 467 153.34C466.16 154.32 464.76 154.6 463.5 154.6Z" fill="#231F20"/>
<path d="M465.04 110.36C465.04 110.36 452.86 103.5 451.04 105.46C449.22 107.42 450.9 112.46 450.9 112.46" fill="white"/>
<path d="M450.76 113.58C450.34 113.58 449.92 113.3 449.78 112.88C449.64 112.32 447.96 107.14 450.2 104.76C452.44 102.38 460.7 106.72 465.46 109.52C466.02 109.8 466.16 110.36 465.88 110.92C465.6 111.48 465.04 111.62 464.48 111.34C458.74 107.98 452.72 105.6 451.74 106.3C450.76 107.42 451.18 110.64 451.88 112.32C452.02 112.88 451.74 113.44 451.18 113.58C451.04 113.58 450.9 113.58 450.76 113.58Z" fill="#231F20"/>
<path d="M442.5 123.94C442.22 123.94 441.94 123.8 441.66 123.52C433.68 112.88 437.32 107.14 437.46 106.86C437.74 106.44 438.44 106.3 438.86 106.58C439.28 106.86 439.42 107.56 439.14 107.98C439.14 108.12 436.34 112.88 443.2 122.26C443.48 122.68 443.48 123.38 443.06 123.66C442.92 123.94 442.78 123.94 442.5 123.94Z" fill="#231F20"/>
<path d="M466.914 108.65C471.257 107.904 473.952 102.481 472.931 96.5368C471.911 90.5927 467.562 86.3786 463.218 87.1243C458.875 87.87 456.18 93.2931 457.201 99.2373C458.221 105.181 462.57 109.395 466.914 108.65Z" fill="#231F20"/>
<path d="M470.261 131.909C474.605 131.163 477.299 125.74 476.278 119.796C475.258 113.851 470.909 109.637 466.566 110.383C462.222 111.129 459.528 116.552 460.548 122.496C461.569 128.44 465.917 132.654 470.261 131.909Z" fill="#231F20"/>
<path d="M473.3 88.24C473.3 88.24 484.64 101.68 483.8 120.02C483.38 130.66 470.36 148.86 470.36 148.86C470.36 148.86 493.46 152.92 507.74 135.98C518.52 123.24 515.02 97.34 497.1 91.32C483.1 86.7 473.3 88.24 473.3 88.24Z" fill="#EF8122"/>
<path d="M328.4 99.5799C328.96 98.7399 296.2 96.6399 276.46 104.48C256.72 112.32 237.68 128.42 237.68 128.42C237.68 128.42 252.24 179.1 259.52 184L268.9 179.38C268.62 185.82 271.84 191.84 277.16 195.48L335.68 180.64C335.68 180.78 319.58 114 328.4 99.5799Z" fill="#EF8122"/>
<path d="M469.94 144.66C469.38 144.66 468.96 144.24 468.96 143.82L467.42 132.06C467.28 131.5 467.7 130.94 468.26 130.94C468.82 130.94 469.38 131.22 469.38 131.78L470.92 143.54C471.06 144.1 470.64 144.66 470.08 144.66H469.94Z" fill="#231F20"/>
<path d="M268.9 180.5C268.48 180.5 268.06 180.22 267.92 179.66C267.78 179.1 268.06 178.54 268.62 178.4C268.9 178.4 300.82 170.7 311.46 166.78C312.02 166.5 312.58 166.78 312.86 167.34C313.14 167.9 312.86 168.46 312.3 168.74C301.38 172.8 270.44 180.08 269.18 180.5H268.9Z" fill="#231F20"/>
<path d="M246.36 134.16C245.94 134.16 245.66 134.02 245.52 133.6C245.24 133.18 245.38 132.48 245.8 132.2C247.34 131.22 282.9 109.52 312.02 111.76C312.58 111.76 313 112.32 313 112.88C313 113.44 312.44 113.86 311.88 113.86C283.46 111.62 247.34 133.74 246.92 133.88C246.78 134.16 246.5 134.16 246.36 134.16Z" fill="white"/>
<path d="M454.12 171.68C453.56 171.68 453 171.26 453 170.7C453 170.28 453.28 169.86 453.7 169.72C468.4 165.38 476.24 157.82 476.24 157.68C476.66 157.26 477.36 157.26 477.78 157.68C478.2 158.1 478.2 158.8 477.78 159.22C477.5 159.5 469.52 167.2 454.26 171.82L454.12 171.68Z" fill="#231F20"/>
<path d="M404.84 98.8799C404.7 98.8799 404.42 98.8799 404.28 98.7399C401.62 96.9199 394.62 87.1199 393.92 85.9999C393.64 85.5799 393.78 84.8799 394.2 84.5999C394.62 84.3199 395.32 84.3199 395.6 84.8799C397.7 87.8199 403.44 95.7999 405.4 97.0599C405.82 97.3399 405.96 98.0399 405.68 98.4599C405.54 98.8799 405.26 99.0199 404.84 98.8799Z" fill="#231F20"/>
<path d="M498.64 162.02C485.62 162.02 472.6 156.42 462.8 151.38L461.54 150.82C454.96 147.46 448.24 143.96 440.96 143.96H440.82C433.54 143.96 426.68 147.46 419.96 150.82C413.24 154.18 405.96 157.96 398.26 157.96H397.7C387.76 157.82 379.5 151.66 371.38 145.64C364.38 140.46 356.96 135 348.56 133.74C341.28 132.62 334.14 134.86 326.72 137.24C320.7 139.06 314.54 141.02 308.24 141.16C297.6 141.3 287.94 136.68 278.42 132.06C267.5 126.88 257.14 121.84 245.94 123.8C241.32 124.78 236.84 126.46 232.5 128.56C226.34 131.36 220.04 134.16 213.04 133.74C206.04 133.32 200.16 129.4 194.28 125.62C188.12 121.7 182.24 117.92 175.52 117.92H175.8C167.96 117.92 161.52 122.68 154.8 127.72C148.08 132.76 141.36 137.66 133.1 138.08C126.52 138.36 120.5 135.42 114.76 132.62C110 130.38 104.96 127.86 99.78 127.44C90.54 126.6 82 131.5 73.74 136.12C70.66 137.94 67.44 139.76 64.22 141.3C47.98 148.86 29.22 149.28 12.56 142.28C12 142 11.86 141.44 12 140.88C12.28 140.32 12.84 140.18 13.4 140.32C29.36 147.04 47.56 146.76 63.38 139.34C66.46 137.8 69.68 135.98 72.76 134.3C81.3 129.4 90.12 124.36 99.92 125.34C105.52 125.9 110.56 128.28 115.6 130.8C121.48 133.6 126.94 136.26 132.96 135.98C140.52 135.7 147.24 130.8 153.54 126.04C160.26 121 167.4 115.82 175.8 115.82H175.94C183.36 115.82 189.66 119.88 195.82 123.8C201.42 127.3 207.16 131.08 213.6 131.5C220.04 131.92 225.78 129.4 231.94 126.6C236.28 124.36 241.04 122.82 245.8 121.7C257.56 119.6 268.76 124.92 279.54 130.1C288.78 134.58 298.44 139.2 308.38 138.92C314.4 138.78 320.42 136.96 326.3 135.14C333.72 132.9 341.28 130.52 349.12 131.64C358.08 132.9 365.64 138.5 372.92 143.96C381.04 149.98 388.6 155.58 397.98 155.86C405.4 156 412.12 152.64 419.12 149C426.12 145.36 433.12 141.86 440.96 141.86C448.8 141.86 455.66 145.5 462.38 148.86L463.64 149.42C476.94 156.14 496.54 164.26 513.2 156.84C517.54 154.6 521.6 152.08 525.38 149C534.62 142.28 544.98 134.72 556.04 138.5C559.4 139.76 562.2 142.42 565 145.08C567.1 147.18 569.34 149.14 571.86 150.68C581.8 156 592.58 157.12 600.7 153.76C603.36 152.5 605.88 151.1 608.26 149.42C610.78 147.6 613.58 146.06 616.52 144.8C622.96 142.28 630.24 142.7 636.4 145.92C638.78 147.32 641.02 148.86 643.26 150.54C646.76 153.2 650.12 155.86 654.18 156.56C654.74 156.7 655.16 157.12 655.02 157.68C654.88 158.24 654.46 158.66 653.9 158.52C649.28 157.68 645.64 154.88 642 152.08C639.9 150.4 637.8 148.86 635.56 147.6C629.96 144.66 623.24 144.38 617.36 146.62C614.56 147.88 612.04 149.28 609.52 151.1C607 152.92 604.34 154.46 601.54 155.72C592.86 159.36 581.52 158.1 571.02 152.5C568.36 150.82 565.98 148.86 563.74 146.62C561.08 143.96 558.42 141.44 555.62 140.46C545.68 136.96 536.02 143.82 526.92 150.54C523 153.62 518.8 156.28 514.32 158.52C509.14 161.04 503.96 162.16 498.64 162.02Z" fill="#FAE906"/>
<path d="M212.62 95.5199C212.48 95.5199 212.2 95.5199 212.06 95.3799L205.9 91.8799C204.22 91.0399 202.68 89.9199 201.56 88.3799C200.16 86.5599 200.3 84.0399 201.84 82.3599C203.38 81.2399 205.2 80.8199 207.16 81.2399C212.34 81.9399 217.38 84.0399 221.44 87.3999C221.86 87.8199 221.86 88.3799 221.58 88.7999C221.16 89.2199 220.6 89.2199 220.18 88.9399C216.4 85.8599 211.78 83.7599 206.88 83.1999C205.06 82.9199 203.94 83.1999 203.38 83.7599C202.68 84.7399 202.68 86.1399 203.38 87.2599C204.36 88.5199 205.62 89.3599 207.02 90.0599L213.18 93.5599C213.74 93.8399 213.88 94.3999 213.6 94.9599C213.46 95.2399 213.04 95.5199 212.62 95.5199Z" fill="#FAE906"/>
<path d="M192.46 67.6599C192.32 67.6599 192.04 67.66 191.9 67.52C189.24 65.98 186.86 64.1599 184.62 62.0599C182.38 59.9599 182.38 58.2799 182.8 57.2999C183.5 56.0399 184.62 55.3399 186.02 55.1999C190.92 54.4999 195.82 56.4599 198.9 60.3799C199.18 60.7999 199.04 61.4999 198.62 61.7799C198.2 62.0599 197.64 61.92 197.36 61.64C194.7 58.28 190.64 56.5999 186.44 57.2999C185.88 57.4399 184.9 57.58 184.76 58.14C184.34 58.98 185.6 60.1 186.02 60.52C188.12 62.48 190.5 64.2999 193.02 65.6999C193.44 65.9799 193.72 66.5399 193.44 67.0999C193.16 67.5199 192.74 67.6599 192.46 67.6599Z" fill="#FAE906"/>
<path d="M166.14 89.4999C166 89.4999 165.86 89.4999 165.72 89.3599L159.98 86.42C159.7 86.28 159.42 85.9999 159.42 85.5799C159.28 84.3199 159.7 83.1999 160.54 82.3599C161.66 81.2399 163.2 80.3999 164.74 80.3999C167.26 80.5399 169.64 81.24 171.6 82.64C172.16 82.92 172.3 83.48 172.02 84.04C171.74 84.6 171.18 84.7399 170.62 84.4599C168.8 83.3399 166.84 82.6399 164.74 82.4999C163.62 82.4999 162.64 83.0599 161.94 83.7599C161.66 84.0399 161.38 84.46 161.38 85.02L166.56 87.6799C167.12 87.9599 167.26 88.5199 166.98 89.0799C166.84 89.3599 166.56 89.4999 166.14 89.4999Z" fill="#FAE906"/>
<path d="M422.34 223.34C418.7 223.34 415.06 222.36 411.84 220.54C411.28 220.26 411.14 219.7 411.42 219.14C411.7 218.58 412.26 218.44 412.82 218.72C419.12 222.22 426.68 221.94 432.7 218.16C433.96 217.32 435.08 216.34 436.34 215.36C438.58 213.26 441.24 211.58 444.04 210.46C449.64 208.92 454.82 211.58 460 214.24C465.18 216.9 469.66 219.14 474.28 217.88C476.52 217.18 478.62 216.06 480.44 214.52C482.4 212.98 484.64 211.86 486.88 211.02C491.22 209.76 495.56 211.02 499.9 212.14C504.24 213.26 508.3 214.38 512.08 213.12C512.64 212.98 513.2 213.26 513.34 213.82C513.48 214.38 513.2 214.8 512.78 215.08C508.3 216.62 503.82 215.36 499.48 214.1C495.28 212.98 491.36 211.86 487.58 212.98C485.48 213.68 483.52 214.8 481.7 216.2C479.6 217.74 477.36 219 474.84 219.84C469.38 221.24 464.06 218.58 459.02 216.06C453.98 213.54 449.36 211.16 444.6 212.42C441.94 213.4 439.56 214.94 437.6 216.76C436.34 217.88 435.08 218.86 433.82 219.7C430.46 222.08 426.4 223.34 422.34 223.34Z" fill="#FAE906"/>
<path d="M212.06 235.38C210.52 235.38 208.84 235.24 207.3 234.82C201.56 233.56 196.24 231.04 191.76 227.54C191.34 227.12 191.2 226.56 191.62 226.14C192.04 225.72 192.6 225.58 193.02 226C197.22 229.5 202.26 231.88 207.72 233C210.52 233.7 213.46 233.7 216.12 232.72C219.2 231.46 221.58 228.66 223.82 225.86C226.76 222.36 229.84 218.58 234.46 218.16C238.8 217.74 242.44 220.26 245.94 222.78C248.6 224.74 251.4 226.7 254.34 227.26C258.82 227.96 262.74 225.58 267.08 223.06C270.3 221.1 273.66 219 277.44 218.44C282.2 217.6 287.24 219.14 290.74 222.5C291.16 222.78 291.3 223.48 290.88 223.9C290.6 224.32 289.9 224.46 289.48 224.04L289.34 223.9C286.26 220.96 282.06 219.7 277.86 220.4C274.36 221.24 271.14 222.78 268.2 224.88C263.86 227.54 259.24 230.34 254.06 229.36C250.56 228.8 247.62 226.56 244.82 224.6C241.46 222.22 238.38 219.98 234.74 220.26C230.82 220.68 228.16 223.9 225.36 227.26C222.84 230.2 220.32 233.28 216.82 234.68C215.28 235.1 213.74 235.38 212.06 235.38Z" fill="#FAE906"/>
<path d="M14.8 181.62C8.50002 181.62 2.76002 177.98 0.100019 172.38C-0.179981 171.82 0.100018 171.26 0.660018 170.98C1.22002 170.7 1.78002 170.98 2.06002 171.54C4.72002 177.14 10.88 180.36 17.04 179.52C21.1 178.82 24.46 176.58 28.1 174.06C32.02 171.4 36.08 168.74 40.98 168.32C44.76 168.04 48.54 169.16 52.18 170.28C56.52 171.54 60.58 172.8 64.5 171.54C65.06 171.4 65.62 171.68 65.76 172.24C65.9 172.8 65.62 173.36 65.06 173.5C60.58 174.9 55.96 173.5 51.48 172.24C47.98 171.26 44.48 170.14 40.98 170.42C36.64 170.84 33 173.22 29.08 175.88C25.44 178.4 21.52 180.92 17.18 181.62C16.34 181.48 15.64 181.62 14.8 181.62Z" fill="#FAE906"/>
</svg>
