<svg width="60" height="60" viewBox="0 0 60 60" fill="none" xmlns="http://www.w3.org/2000/svg">
<path fill-rule="evenodd" clip-rule="evenodd" d="M46.0075 14.0826C43.9284 11.9898 41.4547 10.3304 38.7297 9.20044C36.0046 8.07053 33.0825 7.49257 30.1325 7.50007C17.7625 7.50007 7.6925 17.5676 7.6875 29.9426C7.6875 33.8976 8.72 37.7576 10.6825 41.1626L7.5 52.7901L19.3975 49.6676C22.6885 51.4591 26.3755 52.3984 30.1225 52.4001H30.1325C42.5 52.4001 52.57 42.3326 52.575 29.9576C52.5835 27.0088 52.0075 24.0876 50.8802 21.3627C49.7529 18.6379 48.0968 16.1635 46.0075 14.0826ZM30.1325 48.6126H30.125C26.7838 48.6129 23.5041 47.714 20.63 46.0101L19.95 45.6051L12.89 47.4576L14.7725 40.5751L14.33 39.8701C12.462 36.8961 11.4731 33.4545 11.4775 29.9426C11.4825 19.6576 19.85 11.2901 30.14 11.2901C32.5906 11.2846 35.018 11.7653 37.2816 12.7042C39.5453 13.6431 41.6002 15.0217 43.3275 16.7601C45.0641 18.4902 46.4405 20.5473 47.3772 22.8126C48.314 25.0778 48.7924 27.5063 48.785 29.9576C48.78 40.2426 40.4125 48.6126 30.1325 48.6126ZM40.365 34.6401C39.8025 34.3576 37.0475 33.0026 36.5325 32.8151C36.02 32.6276 35.6475 32.5351 35.2725 33.0951C34.8975 33.6551 33.8225 34.9176 33.495 35.2926C33.1675 35.6676 32.84 35.7126 32.28 35.4326C31.72 35.1526 29.9125 34.5601 27.77 32.6501C26.1025 31.1626 24.9775 29.3276 24.65 28.7651C24.3225 28.2026 24.615 27.9001 24.8975 27.6201C25.15 27.3701 25.4575 26.9651 25.7375 26.6376C26.0175 26.3101 26.11 26.0776 26.2975 25.7026C26.485 25.3276 26.3925 25.0001 26.25 24.7201C26.11 24.4376 24.9875 21.6776 24.52 20.5551C24.0675 19.4676 23.605 19.6126 23.26 19.5976C22.9027 19.583 22.5451 19.5763 22.1875 19.5776C21.9031 19.5848 21.6233 19.6507 21.3657 19.7712C21.108 19.8916 20.8779 20.064 20.69 20.2776C20.175 20.8401 18.7275 22.1951 18.7275 24.9551C18.7275 27.7151 20.7375 30.3826 21.0175 30.7576C21.2975 31.1326 24.9725 36.7951 30.5975 39.2251C31.9375 39.8026 32.9825 40.1476 33.795 40.4076C35.1375 40.8351 36.36 40.7726 37.3275 40.6301C38.405 40.4701 40.645 39.2751 41.1125 37.9651C41.58 36.6551 41.58 35.5326 41.44 35.2976C41.3 35.0626 40.9225 34.9201 40.365 34.6401Z" fill="#EF8122"/>
</svg>
