<svg width="80" height="80" viewBox="0 0 80 80" fill="none" xmlns="http://www.w3.org/2000/svg">
<path fill-rule="evenodd" clip-rule="evenodd" d="M61.3433 18.7768C58.5712 15.9864 55.2729 13.7738 51.6395 12.2673C48.0062 10.7607 44.11 9.9901 40.1767 10.0001C23.6833 10.0001 10.2567 23.4234 10.25 39.9234C10.25 45.1968 11.6267 50.3434 14.2433 54.8834L10 70.3868L25.8633 66.2234C30.2513 68.6121 35.1673 69.8646 40.1633 69.8668H40.1767C56.6667 69.8668 70.0933 56.4434 70.1 39.9434C70.1113 36.0117 69.3433 32.1167 67.8403 28.4836C66.3372 24.8505 64.1291 21.5513 61.3433 18.7768ZM40.1767 64.8168H40.1667C35.7117 64.8172 31.3388 63.6186 27.5067 61.3468L26.6 60.8068L17.1867 63.2768L19.6967 54.1001L19.1067 53.1601C16.616 49.1948 15.2974 44.606 15.3033 39.9234C15.31 26.2101 26.4667 15.0534 40.1867 15.0534C43.4542 15.0462 46.6907 15.687 49.7088 16.9389C52.727 18.1908 55.4669 20.0289 57.77 22.3468C60.0854 24.6536 61.9206 27.3964 63.1696 30.4168C64.4186 33.4371 65.0566 36.675 65.0467 39.9434C65.04 53.6568 53.8833 64.8168 40.1767 64.8168ZM53.82 46.1868C53.07 45.8101 49.3967 44.0034 48.71 43.7534C48.0267 43.5034 47.53 43.3801 47.03 44.1268C46.53 44.8734 45.0967 46.5568 44.66 47.0568C44.2233 47.5568 43.7867 47.6168 43.04 47.2434C42.2933 46.8701 39.8833 46.0801 37.0267 43.5334C34.8033 41.5501 33.3033 39.1034 32.8667 38.3534C32.43 37.6034 32.82 37.2001 33.1967 36.8268C33.5333 36.4934 33.9433 35.9534 34.3167 35.5168C34.69 35.0801 34.8133 34.7701 35.0633 34.2701C35.3133 33.7701 35.19 33.3334 35 32.9601C34.8133 32.5834 33.3167 28.9034 32.6933 27.4068C32.09 25.9568 31.4733 26.1501 31.0133 26.1301C30.5369 26.1106 30.0601 26.1017 29.5833 26.1034C29.2042 26.1131 28.8311 26.201 28.4875 26.3616C28.1439 26.5222 27.8372 26.7521 27.5867 27.0368C26.9 27.7868 24.97 29.5934 24.97 33.2734C24.97 36.9534 27.65 40.5101 28.0233 41.0101C28.3967 41.5101 33.2967 49.0601 40.7967 52.3001C42.5833 53.0701 43.9767 53.5301 45.06 53.8768C46.85 54.4468 48.48 54.3634 49.77 54.1734C51.2067 53.9601 54.1933 52.3668 54.8167 50.6201C55.44 48.8734 55.44 47.3768 55.2533 47.0634C55.0667 46.7501 54.5633 46.5601 53.82 46.1868Z" fill="#EF8122"/>
</svg>
